<svg xmlns="http://www.w3.org/2000/svg" viewBox="0 0 357.5 565">
  <defs>
     <style>
      .book-path {
        fill: #161f27;
      }
    </style>
  </defs>
  <g>
    <path class="book-path" d="M82.7,2,214.2,171.1V479L67.4,262.7A111.16,111.16,0,0,1,46,197.4V0H0V197.4a154.22,154.22,0,0,0,29.9,91.9L209.1,553.5A28,28,0,0,0,231.8,565a30.08,30.08,0,0,0,8.9-1.4,28.38,28.38,0,0,0,19.5-26.9V163.2a22.58,22.58,0,0,0-4.9-14.1L139.4,0H81.2C81.7.7,82.2,1.4,82.7,2Z"/>
    <path class="book-path" d="M311.5,95.3V435.9a23,23,0,0,0,46,0V85.3a23.07,23.07,0,0,0-7.3-16.8L276.9,0H209.4Z"/>
  </g>
</svg>
