<svg xmlns="http://www.w3.org/2000/svg" viewBox="0 0 328.92 89.72"><defs><style>.cls-1{fill:#5f5d5f;}.cls-2{fill:#009ee0;}.cls-3{fill:#00ed00;}.cls-4{fill:#00e3e0;}.cls-5{fill:#fd0;}.cls-6{fill:#fff947;}.cls-7{fill:#fffce5;}.cls-8{fill:#5b5b5b;}.cls-9{fill:#d30019;}.cls-10{fill:#e41254;}.cls-11{fill:#e2007a;}</style></defs><title>liceunet.ro</title><g id="Layer_2" data-name="Layer 2"><g id="RGB"><path class="cls-1" d="M293.41,30.16v-5h-3.83V51.4h3.83V35.19l6.71-6.75h4.28V25h-5.89Zm-206-7.21,2.79-2.79L93,22.95l2.71-2.71-2.79-2.79,2.79-2.79-2.48-2.47L90.45,15l-2.79-2.79L85,14.9l2.79,2.79L85,20.47ZM278.65,41.77l-2.79,2.79-2.79-2.79-2.71,2.71,2.79,2.79-2.79,2.79,2.47,2.47,2.79-2.79,2.79,2.79,2.71-2.71L278.34,47l2.79-2.79Zm-19.34,6h-6.48V28.38h6.26V24.94h-6.26V20.32H249v4.62h-4.2v3.44H249V41.55l-6.25,6.25H231.36l-4.31-4.36,11.35-11.36V24.94H227.11l-7.53,7.53v9h0l2.17,2.17-4.14,4.14h-7.24V24.92H199.76l-5.11,5.16V25h-3.84V41.48l-6.38,6.38h-4.27V25.12h-3.84V42.68l-5.18,5.18H164.3V25.12h-3.83V41.35l-6.5,6.5h-9.78l-4.14-4.53,11.17-11.16V25H139.94l-7.52,7.52v9l2.21,2.21-4.14,4.13H109.4V33.73l5.27-5.27h7.54V33.7H126V25h-13l-7.51,7.51V41l-6.82,6.82H92.28V25H88.45V42.68l-5.18,5.18H74.13V17.61l-3.81,0V51.29H84.86l3.59-3.57v3.57l11.67,0L105.57,46v5.23l26.52,0L137.35,46l5.44,5.26h12.56l5.12-4.94v4.94h12.28l3.57-3.59v3.6H186l4.79-4.79v4.83h3.84V35.12l6.72-6.75h5.21V51.22l12.68,0L224.51,46l5.27,5.26h14.53L249,46.58v4.66h11.9l4.82-4.81-2.49-2.54ZM137.35,41l-1.09-1.09V33.73l5.27-5.27h5.86V31Zm86.07-1.15v-6.2l5.28-5.28h5.86v2.51l-10.05,10ZM315.93,25l-7.53,7.53V42.67h0v8.7h13l7.53-7.53V33.72h0V25Zm9.15,17.62-5.28,5.29h-7.56V33.75l5.28-5.28h7.56Z"/><polygon class="cls-2" points="47.11 0 0 4.56 43.44 17.56 43.44 45.77 47.11 45.49 47.11 0"/><polygon class="cls-3" points="35.57 60.69 43.44 63.04 43.44 45.77 35.57 46.54 35.57 60.69"/><polygon class="cls-4" points="0 4.56 35.57 33.63 35.57 46.54 43.44 45.77 43.44 17.56 0 4.56"/><polygon class="cls-5" points="21.21 67.38 35.57 79.11 35.57 60.69 21.21 56.39 21.21 67.38"/><polygon class="cls-6" points="21.21 47.96 21.21 56.39 35.57 60.69 35.57 46.54 21.21 47.96"/><polygon class="cls-7" points="21.21 47.96 35.57 46.54 35.57 33.63 0 4.56 21.21 44.23 21.21 47.96"/><polygon class="cls-8" points="21.21 89.72 21.21 67.38 0 50.05 21.21 89.72"/><polygon class="cls-9" points="0 50.05 21.21 67.38 21.21 56.39 0 50.05"/><polygon class="cls-10" points="21.21 47.96 0 50.05 21.21 56.39 21.21 47.96"/><polygon class="cls-11" points="21.21 44.23 0 4.56 0 50.05 21.21 47.96 21.21 44.23"/></g></g></svg>