<?xml version="1.0" encoding="UTF-8" standalone="no"?>
<!-- Generator: Adobe Illustrator 12.0.0, SVG Export Plug-In . SVG Version: 6.00 Build 51448)  -->

<svg
   xmlns:dc="http://purl.org/dc/elements/1.1/"
   xmlns:cc="http://creativecommons.org/ns#"
   xmlns:rdf="http://www.w3.org/1999/02/22-rdf-syntax-ns#"
   xmlns:svg="http://www.w3.org/2000/svg"
   xmlns="http://www.w3.org/2000/svg"
   xmlns:sodipodi="http://sodipodi.sourceforge.net/DTD/sodipodi-0.dtd"
   xmlns:inkscape="http://www.inkscape.org/namespaces/inkscape"
   version="1.1"
   id="Layer_1"
   width="356.893"
   height="537.891"
   viewBox="81.754 153.884 356.893 537.891"
   style="overflow:visible;enable-background:new 81.754 153.884 356.893 537.891;"
   xml:space="preserve"
   sodipodi:version="0.32"
   inkscape:version="0.48.2 r9819"
   sodipodi:docname="Digestive system ro.svg"
   inkscape:output_extension="org.inkscape.output.svg.inkscape"><metadata
   id="metadata5583"><rdf:RDF><cc:Work
       rdf:about=""><dc:format>image/svg+xml</dc:format><dc:type
         rdf:resource="http://purl.org/dc/dcmitype/StillImage" /></cc:Work></rdf:RDF></metadata><defs
   id="defs5581" /><sodipodi:namedview
   inkscape:window-height="738"
   inkscape:window-width="1280"
   inkscape:pageshadow="2"
   inkscape:pageopacity="0.0"
   guidetolerance="10.0"
   gridtolerance="10.0"
   objecttolerance="10.0"
   borderopacity="1.0"
   bordercolor="#666666"
   pagecolor="#ffffff"
   id="base"
   inkscape:zoom="2.803542"
   inkscape:cx="186.86452"
   inkscape:cy="490.00463"
   inkscape:window-x="-8"
   inkscape:window-y="-8"
   inkscape:current-layer="Layer_1"
   showgrid="false"
   inkscape:window-maximized="1" />
<style
   type="text/css"
   id="style4974">

	.st0{fill:#ED1C24;}
	.st1{enable-background:new    ;}
	.st2{opacity:0.68;fill:#F26522;stroke:#C0272D;stroke-width:0.3936;enable-background:new    ;}
	.st3{fill:#537F24;}
	.st4{fill:#8CC63F;}
	.st5{fill:#F26522;}
	.st6{fill:none;stroke:#F26522;stroke-width:0.6561;}
	.st7{fill:#971B1E;}
	.st8{fill:#FAA41A;}
	.st9{fill:#2E3192;}
	.st10{fill:#FFFFFF;}
	.st11{fill:url(#XMLID_87_);}
	.st12{fill:url(#XMLID_91_);}
	.st13{fill:url(#XMLID_92_);}
	.st14{fill:none;stroke:#636466;stroke-width:0.3936;}
	.st15{fill:none;stroke:#636466;stroke-width:0.7873;}
	.st16{fill:none;stroke:#ED1C24;stroke-width:0.6561;}
	.st17{fill:#6C9D31;stroke:#6C5635;stroke-width:0.3974;}
	.st18{fill:#FFFFFF;stroke:#000000;stroke-width:0.3936;}
	.st19{fill:url(#XMLID_88_);stroke:#6C5635;stroke-width:0.3898;}
	.st20{fill:url(#XMLID_90_);stroke:#00ADEF;stroke-width:0.3936;}
	.st21{fill:#C0272D;stroke:#F26522;stroke-width:0.3396;}
	.st22{fill:#00552A;}
	.st23{fill:url(#XMLID_89_);stroke:#FFF200;stroke-width:0.3648;}
	.st24{fill:none;stroke:#ED1C24;stroke-width:0.6561;stroke-linecap:round;}
	.st25{fill:#F26522;stroke:#C0272D;stroke-width:0.3621;}
	.st26{fill:#F26522;stroke:#C0272D;stroke-width:0.3936;}
	.st27{fill:#FFC20E;stroke:#000000;stroke-width:0.1968;}

</style>

<linearGradient
   id="XMLID_93_"
   gradientUnits="userSpaceOnUse"
   x1="255.5325"
   y1="59.2576"
   x2="251.3"
   y2="88.7104"
   gradientTransform="matrix(1 0 0 1 -0.1104 222.9453)">
	<stop
   offset="0.0056"
   style="stop-color:#93D9F8"
   id="stop4979" />
	<stop
   offset="1"
   style="stop-color:#FFFFFF"
   id="stop4981" />
</linearGradient>
<path
   style="fill:url(#XMLID_93_);"
   d="M255.197,314.99c-0.734,1.145-1.746,1.972-3.169,1.789c-3.584-0.457-4.373-4.442-4.991-7.34  c-1.485-6.942-1.34-15.063,0.448-21.881c0.632-2.405,0.949-7.455,3.932-8.285c2.137-0.592,3.423,1.874,4.877,2.967  c1.92,1.442,3.702,2.621,6.128,3.025c-0.862,1.472-2.154,1.717-3.147,2.968c-0.917,1.154-1.168,3.068-1.437,4.464  c-0.542,2.813-0.455,5.723-1.002,8.521c-0.662,3.384,0.799,6.885-0.174,10.225C256.347,312.511,255.898,313.895,255.197,314.99z"
   id="path4983" />
<g
   id="g4985">
	
		<linearGradient
   id="XMLID_94_"
   gradientUnits="userSpaceOnUse"
   x1="333.2209"
   y1="284.8376"
   x2="273.2599"
   y2="470.55"
   gradientTransform="matrix(0.9985 -0.0552 0.0552 0.9985 -35.4967 221.5755)">
		<stop
   offset="0"
   style="stop-color:#6C9D31"
   id="stop4988" />
		<stop
   offset="0.2906"
   style="stop-color:#6C9C32"
   id="stop4990" />
		<stop
   offset="0.4226"
   style="stop-color:#6B9A36"
   id="stop4992" />
		<stop
   offset="0.5227"
   style="stop-color:#67963E"
   id="stop4994" />
		<stop
   offset="0.6066"
   style="stop-color:#62914A"
   id="stop4996" />
		<stop
   offset="0.6803"
   style="stop-color:#5C8B59"
   id="stop4998" />
		<stop
   offset="0.747"
   style="stop-color:#528368"
   id="stop5000" />
		<stop
   offset="0.8084"
   style="stop-color:#467977"
   id="stop5002" />
		<stop
   offset="0.8656"
   style="stop-color:#356D87"
   id="stop5004" />
		<stop
   offset="0.9173"
   style="stop-color:#1C6095"
   id="stop5006" />
		<stop
   offset="0.9607"
   style="stop-color:#0054A6"
   id="stop5008" />
		<stop
   offset="0.9696"
   style="stop-color:#2E4BA0"
   id="stop5010" />
		<stop
   offset="0.9893"
   style="stop-color:#5A3795"
   id="stop5012" />
		<stop
   offset="1"
   style="stop-color:#662D91"
   id="stop5014" />
	</linearGradient>
	<path
   style="fill:url(#XMLID_94_);stroke:#6C5635;stroke-width:0.3898;"
   d="M235.875,621.448   c-3.937,6.195-3.304,10.464-1.935,16.812c2.387-0.467,2.627,4.438,4.662,4.25c1.568,5.426-2.141,7.367-1.426,12.773   c0.112,0.847,8.831,14.298,6.601,13.897c1.655,0.297,2.827,0.248,4.437-0.243c1.024-6.127,4.879-6.843,5.822-12.8   c0.191-1.215-2.086-14.579-5.745-12.175c11.049-7.261,3.755-10.545,1.214-17.798c8.913,4.329,14.844,6.712,26.256,4.9   c19.096-3.031,32.584-5.226,40.479-21.172c1.017-2.053,1.737-4.253,3.202-6.138c1.716-2.206,4.425-3.712,5.293-6.359   c0.529-1.613,0.255-2.904,1.245-4.303c0.536-0.755,1.686-1.143,2.315-2.005c2.445-3.351-0.734-5.387-0.119-8.566   c0.534-2.76,4.184-4.143,4.072-7.824c-0.059-1.896-1.886-3.866-1.345-5.778c0.455-1.604,2.485-3.101,3.218-4.797   c1.028-2.396,1.105-4.588-0.203-6.821c-0.493-0.841-1.596-1.918-1.869-2.781c-0.262-0.831,0.234-1.545,0.579-2.485   c0.98-2.688,1.024-5.808-0.14-8.394c-0.732-1.628-1.574-2.484-1.097-4.283c0.465-1.743,1.921-3.296,1.686-5.177   c-0.209-1.664-2.087-2.862-2.553-4.294c-0.541-1.678,1.021-2.742,1.748-4.126c0.678-1.278,0.683-2.835,0.348-4.16   c-0.639-2.519-3.401-3.763-1.755-6.403c1.952-3.132,3.892-5.974,1.245-9.245c-3.127-3.854-3.831-3.53-3.768-8.066   c0.045-3.111-0.01-5.152-2.109-7.907c-4.399-5.771-13.559-10.243-20.988-5.415c-7.35,4.774-5.352,12.688-3.133,19.104   c1.146,3.313,1.582,4.474,1.271,7.967c-0.045,0.489,1.313,15.224,4.756,13.073c-2.719,1.697-3.05,4.225-3.404,6.867   c-0.543,4.066,1.589,4.27,2.644,7.423c0.645,1.929-0.053,2.456-0.49,4.84c-0.606,3.294,1.449,5.714,1.658,8.167   c0.147,1.755-1.391,3.146-1.765,5.185c-0.521,2.828,1.701,3.804,2.06,6.132c0.194,1.268-1.573,11.182-2.021,11.829   c-1.534,2.226-5.697,2.752-7.188,4.877c-2.029,2.896,0.869,6.262-0.479,9.175c-1.063,2.299-5.324,2.393-6.391,5.468   c-0.914,2.643,0.912,6.138,1.027,8.935c-7.103,0.21-12.953,4.903-13.972,10.724c-0.241,1.396-23.864-2.978-26.173-2.958   C245.472,611.432,239.535,615.686,235.875,621.448z"
   id="path5016" />
	<path
   class="st3"
   d="M325.764,505.948c-0.021,0.339-0.037,0.659-0.043,0.958c-0.041,1.996-3.275,4.409-0.477,5.688   c1.803,0.823,5.381-1.39,6.672-2.14c1.307,7.475-11.551,7.905-10.275,14.139c0.957,4.674,4.614,2.288,8.103,1.292   c2.405,3.856-2.148,4.152-3.717,6.668c-1.775,2.849-1.568,7.95,3.606,5.818c-0.032-0.051,0.588,1.833,0.604,1.938   c-0.885,0.016-3.566,1.104-5.451,1.188c-1.776,2.327-2.691,6.318-2.235,8.958c0.655,3.795,5.978,4.836,8.72,0.729   c1.123,6.89-7.465,4.013-10.149,8.708c-3.662,6.404,4.438,8.438,10.506,7.229c-1.164,1.827-2.227,2.998-4.086,4.009   c-2.82,1.533-1.546-1.426-4.099,1.74c-2.656,3.298-2.891,11.455,4.312,8.713c-1.641,3.842-5.535,1.308-8.74,2.263   c-0.726,1.791-0.271,3.896-0.229,5.881c2.974-1.442,6.211,0.998,9.711-0.347c-1.597,3.659-5.68,4.165-9.322,3.918   c0.651,0.454,0.955,1.249,1.495,1.739c-2.104,1.191-5.741,7.106-1.261,6.229c-0.508,0.623-1.275,1.766-1.691,2.286   c-2.229,1.342-4.742,2.04-6.053,3.677c-2.982-0.846-11.385,7.24-14.295,9.502c4.987-3.446,17.174-18.504,5.284-18.907   c-0.055-0.415-0.18-0.692-0.38-1.029c2.969,1.324,7.087-1.853,8.085-4.25c-2.72-1.274-4.916-4.027-3.736-6.534   c3.153,3.615,6.231-0.357,4.92-3.237c0.087-0.104,0.838-0.49,0.832-0.474c-2.147-3.006-7.618-8.778-4.585-12.107   c2.041,3.573,6.595,5.484,6.099,0.428c-4.146-2.357-7.038-7.478-5.214-11.498c1.213,1.723,2.641,4.415,6.061,3.845   c-0.623-3.093,2.688-6.537,0.87-8.859c-0.425,0.107-1.135,0.298-1.604,0.369c-2.685-2.538-7.627-8.271-4.277-11.46   c1.979,1.883,3.641,6.117,6.277,3.184c1.213-1.349,0.229-6.091-0.82-7.308c-5.424,3.21-7.926-5.92-6.396-8.936   c0.612,1.244,2.687,2.56,4.36,1.184c0.803-0.66-0.411-4.036,0.369-5.389c-6.404-2.481-9.505-7.136-7.473-13.851   c-0.101-0.067,1.165-0.069,1.143-0.063c-0.064,1.03,0.613,1.837,0.76,2.725c6.181-3.294-8.567-6.692-1.649-12.024   c0.514-0.396,2.93-0.897,4.268-1.97c3.619-2.898,2.255-8.668,6.883-10.596c3.492-1.455,6.488,0.111,7.912,2.484   C327.252,495.63,326.033,502.011,325.764,505.948z"
   id="path5018" />
	<path
   class="st4"
   d="M312.319,504.443c-2.151,5.695,4.021,14.932,4.591,21.11c0.83,8.986-0.482,18.679-0.724,27.742   c-0.518,19.555-0.146,39.029-12.014,56.396c4.021-5.605,8.771-11.763,10.756-18.053c1.466-4.658,0.975-9.329,1.436-14.022   c0.84-8.54,1.887-17.159,1.902-25.771c0.019-9.09-0.473-18.302-0.561-27.359c-0.063-6.229-0.978-14.994-4.939-20.118   c-1.106,0.222-0.471,0.632-0.813,1.164"
   id="path5020" />
</g>
<g
   id="g5022">
	<path
   class="st21"
   d="M190.731,447.417c6.646-1.954,12.339-4.445,17.988-8.514c7.811-5.619,15.292-13.232,22.019-20.143   c2.614-2.687,5.338-5.328,9.072-6.152c6.992-1.544,14.027-2.488,20.905-4.756c7.824-2.58,14.885-7.244,21.215-12.436   c5.631-4.615,14.609-16.469,7.332-23.513c-3.803-3.68-10.51-3.311-15.438-3.042c-7.074,0.386-14.118,1.629-21.212,1.707   c-13.242,0.147-25.52-4.9-38.379-7.126c-11.239-1.944-23.033-0.301-31.905,7.123c-9.773,8.181-14.051,23.918-14.058,36.257   c-0.003,5.361,0.63,11.055,1.887,16.27c1.096,4.552,3.15,9.03,3.907,13.606c0.606,3.668-1.949,9.896,1.339,12.749   C179.303,452.828,186.699,448.601,190.731,447.417z"
   id="path5024" />
	<path
   class="st7"
   d="M196.707,443.611c-1.798,0.674-3.609,1.353-5.394,2.158c-2.897,1.309-6.7,3.2-9.938,3.11   c-5.381-0.147-2.121-6.801-0.543-9.77c1.188-2.234,3.175-3.842,4.474-5.964c1.406-2.297,2.34-5.108,3.162-7.66   c1.565-4.861,2.353-9.941,2.403-15.048c0.042-4.262-0.045-8.658,1.619-12.65c4.756-11.407,22.19-20.67,34.009-14.97   c1.201,0.579,2.595,1.762,3.575,2.271c6.781,3.514,13.891,4.287,21.694,4.491c9.304,0.241,22.321,0.592,30.324-5.109   c2.141-1.526,5.18-5.086,4.632-7.94c1.805-0.605,1.789-2.995,1.065-4.499c4.521,2.652,2.771,8.999,1.063,12.823   c-2.312,5.181-6.578,9.52-11.044,12.917c-5.562,4.23-13.753,7.431-20.448,9.3c-3.944,1.102-7.982,2.189-11.961,3.104   c-3.67,0.843-9.262,1.649-12.367,3.65c-3.275,2.112-5.764,6.294-8.464,9.078c-5.754,5.936-12.117,12.464-19.213,16.813   C202.639,441.385,199.693,442.492,196.707,443.611z"
   id="path5026" />
</g>
<linearGradient
   id="XMLID_95_"
   gradientUnits="userSpaceOnUse"
   x1="261.9827"
   y1="165.2844"
   x2="265.2629"
   y2="182.0795"
   gradientTransform="matrix(0.9951 0.0992 -0.0852 0.8547 41.0534 294.7072)">
	<stop
   offset="0.0056"
   style="stop-color:#8CC63F"
   id="stop5029" />
	<stop
   offset="0.0762"
   style="stop-color:#AFD136"
   id="stop5031" />
	<stop
   offset="0.161"
   style="stop-color:#CEDC28"
   id="stop5033" />
	<stop
   offset="0.248"
   style="stop-color:#E6E515"
   id="stop5035" />
	<stop
   offset="0.3368"
   style="stop-color:#F7EC00"
   id="stop5037" />
	<stop
   offset="0.4286"
   style="stop-color:#FFF000"
   id="stop5039" />
	<stop
   offset="0.5281"
   style="stop-color:#FFF200"
   id="stop5041" />
	<stop
   offset="0.816"
   style="stop-color:#DFE21D"
   id="stop5043" />
	<stop
   offset="1"
   style="stop-color:#CADB2A"
   id="stop5045" />
</linearGradient>
<path
   style="fill:url(#XMLID_95_);stroke:#FFF200;stroke-width:0.3648;"
   d="M266.082,478.952c0.704-0.292,1.379-0.738,2.012-1.303  c0.445,5.38,9.93,3.478,11.222-0.232c2.567,2.79,11.369,4.107,12.024-0.665c3.224,2.886,13.879,4.688,12.137-1.683  c2.715,4.001,5.584,2.854,6.01-0.995c2.914,3.287,8.017,0.028,9.373-2.687c-1.145,2.285,5.261,1.89,6.191,1.41  c1.362-0.698,1.444-1.933,2.347-2.836c0.386-0.386,2.4-1.614,2.577-2.004c2.172-4.777-4.178-7.876-8.967-6.319  c0.296,0.697,0.793,1.13,1.297,1.727c-2.361-2.271-8.316-0.302-9.568-1.653c0.701,0.757,1.433,1.767,2.216,2.396  c-1.994-2.168-6.484-2.593-9.34-2.103c1.081,0.734,1.956,1.736,2.833,2.487c-2.75-2.469-6.318-2.764-10.053-2.504  c0.818,0.646,1.71,1.709,2.601,2.413c-2.226-2.965-6.378-3.749-10.109-3.742c0.204,1.01,0.471,2.146,0.982,3.088  c-2.021-3.72-8.91-5.687-12.992-4.094c0.955,1.28,1.951,2.762,1.639,4.258c-2.123-4.874-7.647-7.592-13.438-5.756  c1.42,1.652,2.265,4.06,2.566,5.949c-0.538-3.367-4.364-6.58-8.331-6.62c-1.954-0.02-10.596,0.903-8.099,3.858  c-2.983-1.637-6.756-0.077-6.767,3.006c-0.003,1.043,0.596,2.02,0.6,3.089c0.002,0.815-0.421,1.302-0.566,1.976  c-0.242,1.127,0.396,2.148,0.851,3.39c1.225,3.344,6.265,3.845,9.076,1.733c-0.082,0.207-0.07,0.564-0.106,0.673  c0.607-0.21,0.999-0.717,1.208-1.249c-0.534,1.358,3.13,4.021,4.172,4.641C263.202,479.509,264.699,479.528,266.082,478.952z"
   id="path5047" />
<path
   class="st9"
   d="M243.54,447.43c-0.013,4.52-0.138,9.05,0.222,13.561c0.328,4.128,1.269,8.654-0.094,12.697  c-0.452,1.34-1.246,2.562-2.737,2.901c-1.468,0.335-3.247-1.149-4.563-0.602c-1.365,0.573-0.528,2.355,0.256,3.264  c2.297-1.259,4.528,0.985,6.747-1.496c2.439-2.732,2.011-8.106,5.662-9.805c3.172-1.475,9.285-1.489,12.721-0.34  c2.753,0.925,1.959,3.825,3.323,5.587c0.261-1.729-0.482-3.595-1.354-5.108c3.078-0.146,6.412,0.643,9.491,0.878  c3.518,0.271,7.045,0.406,10.571,0.409c2.365,0.001,5.579-0.377,7.825,0.3c2.128,0.642,3.087,2.505,4.327,3.896  c-0.158-1.694-1.627-3.013-3.168-4.005c4.14,0.357,8.601,0.165,12.715-0.156c6.959-0.541,13.214-2.829,19.979-4.014  c-1.266,0.221-2.597,0.104-3.841,0.239c-1.375,0.149-2.666,0.667-4.088,0.618c0.454-0.781,1.618-1.382,2.283-2.136  c-1.613,1.314-3.486,2.601-5.665,3.23c-1.539,0.447-3.365,0.643-4.989,0.803c-1.285,0.127-4.388,0.765-5.449,0.271  c1.891-0.938,0.892-2.546,0.639-3.793c0.821,4.019-2.754,3.85-6.71,3.912c-5.077,0.08-10.161-0.118-15.234-0.429  c-2.426-0.148-4.854-0.397-7.28-0.489c-1.608-0.062-1.925,0.081-0.979-1.246c0.691-0.973,1.597-2.102,1.856-3.188  c-0.195-0.061-0.614-0.103-0.802-0.097c-0.476,1.19-0.832,2.911-2.098,3.729c-1.584,1.024-4.416,0.287-6.277,0.149  c-5.837-0.433-14.703-2.141-20.191,0.015c0.169-0.067-0.563-12.515-0.749-13.999c-0.863-6.953,0.385-13.974-0.01-20.947  c-0.374-6.576-1.835-15.353,0.641-21.58c0.385-0.972,6.384-8.757,2.518-8.281c-1.892,0.231-2.585,6.842-4.024,8.005  c-3.558,2.877-4.461-7.427-7.383-8.585c-1.6,1.585,1.517,4.613,2.468,6.171c2.159,3.536,2.921,7.914,2.713,12.052  c-0.141,2.775,0.552,7.364-1.041,9.722c-1.532,2.266-5.538,3.2-7.56,4.604c-2.836,1.971-5.579,3.689-8.562,5.384  c-1.408,0.801-4.286,1.556-4.224,3.505c3.834,0.019,9.351-5.446,12.765-7.516c1.978-1.197,4.995-2.914,7.285-3.016  c3.976-0.173,2.399,4.126,2.244,7.425C243.604,442.399,243.548,444.906,243.54,447.43z"
   id="path5049" />
<g
   id="g5051">
	
		<linearGradient
   id="XMLID_96_"
   gradientUnits="userSpaceOnUse"
   x1="261.7405"
   y1="308.301"
   x2="287.6936"
   y2="308.301"
   gradientTransform="matrix(0.9674 -0.2534 0.2534 0.9674 -128.8326 223.8357)">
		<stop
   offset="0.0056"
   style="stop-color:#006E3A"
   id="stop5054" />
		<stop
   offset="0.1944"
   style="stop-color:#006E3B"
   id="stop5056" />
		<stop
   offset="0.3271"
   style="stop-color:#006C3E"
   id="stop5058" />
		<stop
   offset="0.4426"
   style="stop-color:#006A44"
   id="stop5060" />
		<stop
   offset="0.5484"
   style="stop-color:#00664D"
   id="stop5062" />
		<stop
   offset="0.6475"
   style="stop-color:#006159"
   id="stop5064" />
		<stop
   offset="0.7416"
   style="stop-color:#005B66"
   id="stop5066" />
		<stop
   offset="0.8319"
   style="stop-color:#005173"
   id="stop5068" />
		<stop
   offset="0.9167"
   style="stop-color:#1D4481"
   id="stop5070" />
		<stop
   offset="0.9986"
   style="stop-color:#2E3192"
   id="stop5072" />
		<stop
   offset="1"
   style="stop-color:#2E3192"
   id="stop5074" />
	</linearGradient>
	<path
   style="fill:url(#XMLID_96_);stroke:#00ADEF;stroke-width:0.3936;"
   d="M224.492,439.363c-1.683,3.141-5.553,4.136-8.431,5.752   c-3.233,1.818-5.563,4.357-8.013,7.096c-2.256,2.521-4.82,6.013-3.973,9.566c0.896,3.768,4.722,3.799,7.339,1.662   c2.37-1.936,2.773-4.842,3.371-7.654c1.125-5.291,5.326-12.329,10.877-14.016"
   id="path5076" />
	<path
   class="st22"
   d="M215.429,451.508c0.027-0.229,0.054-0.45,0.081-0.665c-3.5,0.979-2.926,6.64-5.691,8.724   c-0.012,0.009-0.023,0.019-0.035,0.026c-1.218,0.897-4.494,0.999-4.369,3.201c0.096,1.687,2.412,1.885,3.797,1.463   C214.063,462.773,214.909,455.848,215.429,451.508z"
   id="path5078" />
</g>
<path
   class="st2"
   d="M290.385,384.131c0.906-1.422,1.972-2.773,3.238-4.039c8.35-8.34,21.458-16.672,33.676-11.372  c9.11,3.951,13.644,16.748,14.252,25.938c0.642,9.707-3.32,20.425-8.529,28.497c-5.891,9.13-13.84,18.141-22.946,24.035  c-9.677,6.263-18.341,6.362-29.065,8.829c-7.194,1.656-14.224-0.553-20.789-3.793c-2.448-1.21-4.382-3.212-7.237-3.626  c-6.305-0.916-12.225,4.059-14.135,9.755c-1.824,5.439,0.618,11.471,1.455,16.874c0.611,3.944,7.54,9.253,3.731,12.84  c-1.518,1.429-3.685,1.586-5.493,0.648c-7.946-4.117-11.573-15.913-11.545-23.593c0.019-5.036-1.007-10.432,0.272-15.457  c2.624-10.304,12.318-15.788,22.577-14.991c5.668,0.44,9.941,2.724,15.586,0.667c7.532-2.746,12.038-11.093,15.136-18.252  C285.283,406.198,284.342,393.598,290.385,384.131z"
   id="path5080" />
<path
   class="st26"
   d="M307.682,367.379c14.313-5.327,27.5-1.864,34.846,12.401c7.274,14.128,2.074,23.494-4.111,37.178  c-4.276,9.457-9.794,17.442-17.384,24.423c-10.732,9.874-20.359,16.915-35.28,17.551c-3.227,0.138-6.534,0.083-9.905-0.151  c-1.275-0.088-2.561-0.203-3.854-0.341c-6.654-0.718-10.536-3.268-16.4-6.228c-19.701-9.946-15.22,20.844-8.143,30.171  c1.219,1.606,2.082,2.575,1.21,4.587c-0.976,2.249-3.257,3.777-5.616,4.386c-15.325,3.942-27.971-52.637-2.527-57.317  c9.58-1.763,19.105,4.893,26.352-3.608c4.469-5.242,5.458-13.01,5.956-19.604c1.114-14.762-2.146-29.243-3.163-43.886  c-0.532-7.656-6.088-81.604-8.154-81.173c0.267-0.056,3.446-0.802,1.751-4.373c0,0-5.587-8.379-8.566-11.358  c-1.375-0.196-1.502-1.715-1.276-2.802c0.367-1.773,1.823-3.129,2.168-4.821c0.238-1.17-0.115-2.719-0.341-3.867  c-0.475-2.429-1.458-5.749-3.936-6.865c-5.075-2.288-12.89,0.351-17.705,2.161c-1.576,0.592-3.17,1.407-4.417,2.555  c-1.167,1.075-1.385,2.621-2.979,3.107c-1.099,0.334-4.867,1.082-5.774,0.477c0,0-4.188-2.793-4.188-4.189  c-0.536-1.302-0.938-3.345-1.822-4.417c-1.077-1.309-1.145,0.459-1.308,1.599c-0.219,1.515,0.232,5.307-0.839,6.431  c-1.873,1.967-2.255-1.958-2.367-2.93c-0.279-2.405-1.022-6.316-3.406-7.521c-0.682-0.345,3.227-9.892,4.693-10.542  c0.454,1.684,0.499,3.589,0.673,5.371c0,0,0.651,1.211,1.861,0c0,0,2.049-5.959,8.379-8.379c0,0,9.497-3.352,19.552-2.233  c0,0,10.24,5.771,11.546,7.077c0,0,2.716,0.754,2.035-0.999c-0.076-0.193-0.192-0.417-0.359-0.678  c-0.711-1.105-1.32-1.961-1.704-3.232c-0.156-0.517-0.127-1.131-0.33-1.731c-0.82-2.424-2.836-2.396-4.831-2.974  c0.104-0.105,0.23-0.179,0.334-0.279c-0.657-2.213-2.99-3.338-4.576-4.794c-3.764-3.454-6.021-7.104-11.103-8.676  c-6.117-1.895-12.69-1.307-18.207,1.847c-3.958,2.264-7.472,5.43-10.011,9.226c-0.831,1.241-0.971,2.146-2.545,2.09  c-1.529-0.056-2.797-0.857-4.431-0.68c0.574-0.063,2.567-4.071,3.086-4.681c0.927-1.085,1.629-2.038,2.377-3.286  c1.771-2.95,3.937-5.668,6.339-8.126c3.904-3.995,8.764-7.91,14.192-9.566c2.268-0.691,3.697,0.239,5.908,0.52  c2.889,0.367,5.854-0.555,8.688,0.32c2.929,0.905,5.612,1.986,8.703,1.793c2.91-0.183,3.98,1.529,5.531,3.893  c0.872,1.33,1.753,2.78,2.299,4.263c0.396,1.075,0.523,2.342,1.078,3.355c0.925,1.688,3.229,2.646,4.729,3.813  c1.722,1.337,3.161,2.721,4.714,4.247c3.174,3.12,4.755,6.146,4.799,10.616c0.039,3.722,0.229,7.448,0.375,11.167  c0.231,5.926-0.244,12.748,1.311,18.523c0.011,0.033,0.021,0.064,0.032,0.098c5.989,16.811,4.69,37.59,4.694,55.396  c0.002,12.494,4.33,22.057,3.445,34.461c-0.871,12.209-0.859,25.922,3.688,37.488C292.07,382.13,292.979,372.852,307.682,367.379z   M264.042,437.251c-0.97,0.254-1.981,0.44-3.04,0.558c-3.381,0.373-6.175-0.032-9.271-1.161c-3.146-1.146-7.122-2.551-10.484-1.57  c-11.123,3.241-13.168,14.652-13.865,24.536c-0.461,6.533,2.412,14.398,5.021,20.583c1.625,3.854,4.752,8.769,9.43,8.61  c2.652-0.089,4.321-1.749,3.705-4.336c-0.304-1.272-1.531-1.991-2.036-3.137c-0.563-1.272-3.121-2.737-3.392-4.106  c-0.696-3.542-2.194-6.878-2.887-10.423c-1.048-5.368,0.989-10.388,3.798-14.882c2.76-4.414,8.875-4.329,13.58-3.599  c10.415,1.618,19.027,7.345,29.969,6.411c9.992-0.853,19.321-5.559,27.05-11.771c15.779-12.692,28.026-33.98,26.028-54.741  c-1.771-18.402-22.51-20.428-35.506-12.593c-17.102,10.31-12.514,28.982-20.354,44.613  C277.62,428.544,273.648,434.741,264.042,437.251z"
   id="path5082" />
<path
   class="st18"
   d="M214.029,251.364c-1.703,1.412-1.984,5.431-1.739,7.485c0.127,1.069,0.973,4.571,2.49,4.534  c1.521-0.036,1.262-5.186,1.146-6.189c-0.271-2.33-1.681-4.451-1.896-6.696"
   id="path5084" />
<path
   class="st18"
   d="M213.532,234.853c-2.124,1.765-2.341,3.392-2.241,6.177c0.026,0.782,0.212,5.05,1.62,4.863  c1.139-0.15,2.386-5.276,2.513-6.201c0.192-1.397-0.022-4.744-2.141-4.59"
   id="path5086" />
<path
   class="st27"
   d="M220.296,265.63c0.057,0.103,0.127,0.206,0.215,0.308c1.282,1.493,3.863-0.285,5.424,0.439  c0.505,0.232,1.066,0.776,1.479,1.129c1.086,0.927,3.563,1.972,4.198,3.239c0.875,1.74-1.72,2.478-1.327,4.335  c0.581,2.747,5.488,2.931,7.635,3.142c2.93,0.287,7.479,0.571,9.373-2.246c2.067-3.078,1.097-6.448-2.7-6.842  c-3.104-0.322-6.113,1.039-9.19,0.854c-1.931-0.116-6.222-3.137-7.337-4.695c1.382-0.72,5.017-2.49,1.86-3.509  c-2.644-0.854-5.427,0.844-8.116,0.149c-0.775-0.2-4.812-4.329-4.53-4.438c0.08-0.031,0.182,0.019,0.246-0.012  c-0.519-0.448-1.044-0.883-1.427-1.456c-0.98,2.755,1.804,3.735,3.313,5.339C220.808,262.854,219.449,264.086,220.296,265.63z"
   id="path5088" />
<linearGradient
   id="XMLID_97_"
   gradientUnits="userSpaceOnUse"
   x1="234.0066"
   y1="19.2756"
   x2="238.7913"
   y2="42.6807"
   gradientTransform="matrix(1 0 0 1 -0.1104 222.9453)">
	<stop
   offset="0"
   style="stop-color:#F9B49B"
   id="stop5091" />
	<stop
   offset="0.2246"
   style="stop-color:#FAB69E"
   id="stop5093" />
	<stop
   offset="0.4321"
   style="stop-color:#FBC0AA"
   id="stop5095" />
	<stop
   offset="0.6329"
   style="stop-color:#FCCEBC"
   id="stop5097" />
	<stop
   offset="0.8283"
   style="stop-color:#FDE3D7"
   id="stop5099" />
	<stop
   offset="1"
   style="stop-color:#FFFFFF"
   id="stop5101" />
</linearGradient>
<path
   style="fill:url(#XMLID_97_);"
   d="M222.221,259.793c1.385,0.442,4.462,0.542,4.545-1.376c0.08-1.817-2.92-3.747-4.304-4.339  c-1.382-0.591-4.352,0.1-5.307-0.854c-1.434-1.432,0.916-4.658,1.938-5.812c1.934-2.185,5.15-4.399,8.183-4.289  c3.116,0.112,5.719,0.498,8.874-0.314c3.546-0.912,7.077-1.279,10.565-0.131c3.592,1.181,6.763,3.971,7.492,7.803  c0.355,1.876-0.284,3.744,0.551,5.536c0.735,1.577,2.211,2.528,1.911,4.472c-0.358,2.309-1.826,4.317-2.794,6.391"
   id="path5103" />
<path
   class="st27"
   d="M221.374,251.07c0.114,0.229,0.448,0.39,1.086,0.438c-0.34,0.643-0.73,1.339-1.123,1.967  c0.162,0.181,0.471,0.388,0.738,0.453c-0.428-0.104,1.398-1.806,1.604-1.911c0.795-0.409,1.679-0.335,2.479-0.691  c2.633-1.177,2.417-4.28-0.758-3.509C224.54,248.027,220.725,249.766,221.374,251.07z"
   id="path5105" />
<path
   class="st14"
   d="M217.364,257.677c1.285,1.363,3.655,2.971,5.605,2.952c1.614-0.017,4.42-1.017,3.885-3.039  c-0.434-1.64-2.736-2.984-4.18-3.601c-1.382-0.59-4.35,0.102-5.305-0.854c-1.436-1.432,0.915-4.658,1.937-5.813  c1.935-2.184,5.151-4.398,8.185-4.288c3.115,0.112,5.717,0.499,8.872-0.313c3.547-0.912,7.077-1.279,10.566-0.132  c3.591,1.181,6.763,3.972,7.491,7.804c0.356,1.876-0.283,3.744,0.551,5.535c1.482,3.178,2.643,4.301,0.583,7.782  c-1.613,2.725-3.813,3.506-1,6.686c1.639,1.853,10.661,11.084,8.155,14.187c-1.331,1.645-5.065-1.12-6.276-2.235  c-2.646-2.435-3.839-6.068-7.113-1.125c-1.647,2.487-1.977,6.298-2.484,9.263c-1.352,7.861-1.313,17.438,2.413,24.858"
   id="path5107" />
<path
   class="st9"
   d="M235.956,479.281c2.115,0.871,2.851-2.159,1.318-3.264c-3.69-2.65-2.354,6.397,0.343,2.576  c0.947-1.346,0.013-2.749-1.619-2.553C234.071,476.275,234.366,478.627,235.956,479.281z"
   id="path5109" />
<path
   class="st15"
   d="M223.531,163.927c-5.768,2.305-10.927,9.795-11.784,15.78c-0.726,5.052-0.323,10.204-1.599,15.185  c-0.827,3.229-3.67,5.938-5.773,8.719c-3.188,4.22-6.678,8.528-9.519,12.99c-3.816,5.996-6.113,10.058,1.441,12.728  c2.304,0.813,5.844,1.661,7.222,3.95c1.295,2.149,0.091,4.229-0.195,6.494c-0.288,2.288-0.021,6.01,3.615,4.659  c2.531-0.94,2.197-5.51,4.783-5.714"
   id="path5111" />
<path
   class="st15"
   d="M211.722,259.448c-3.101,1.06-1.549-3.608-1.831-5.248c-0.33-1.924-1.736-4.191-3.68-4.928  c-7.521-2.846-2.968,5.993-2.624,9.111c0.546,4.962-2.32,9.374-2.105,14.229c0.44,9.956,13.703,13.081,21.747,14.066  c4.133,0.507,8.293-1.087,9.81,3.72c1.388,4.402-0.457,7.931,1.516,12.347"
   id="path5113" />
<path
   class="st14"
   d="M256.859,306.422c-0.194-2.183,0.497-20.889,4.73-19.642c5.08,1.496-0.976,21.521,1.568,24.364"
   id="path5115" />
<path
   class="st25"
   d="M254.702,609.506c9.966-3.555,18.725-8.17,26.755-15.296c5.749-5.104,4.221-16.742-4.857-17.172  c-5.646-0.268-9.301,0.818-14.433,2.733c-6.294,2.351-12.813,4.587-19.364,6.134c-4.906,1.158-17.121,3.731-21.177-0.066  c4.007,0.741,6.547,2.229,11.149,1.771c4.099-0.408,8.907-0.953,13.104-2.251c7.36-2.275,13.386-6.844,20.554-9.525  c7.3-2.729,13.548-3.146,21.08-2.196c3.219,0.405,6.796,1.02,9.645-0.951c7.529-5.209,2.339-19.199-5.37-21.429  c-9.82-2.839-21.631,0.997-30.919,4.229c-11.765,4.096-22.833,13.359-35.741,8.834c5.931,2.161,14.226-0.858,19.438-3.796  c7.96-4.486,16.268-9.33,25.381-10.944c7.089-1.255,15.052-0.171,21.211-4.571c6.88-4.918,6.517-13.411-1.276-17.421  c-6.737-3.467-15.435-2.833-22.219,0.289c-5.291,2.436-10.982,4.021-16.594,5.816c-2.907,0.93-5.794,1.916-8.592,3.104  c-3.708,1.575-7.188,3.263-10.98,4.36c-4.974,1.441-9.043-0.303-5.104-5.141c7.539-9.252,20.919-11.546,26.589-22.814  c2.627-5.222,3.741-11.893,1.492-17.446c-1.039-2.563-2.442-4.967-3.516-7.481c-0.587-1.377-2.15-5.153-4.286-4.036  c-1.655,0.864-1.42,3.098-3.788,3.577c-2.165,0.438-4.941-0.864-6.924,0.034c-0.15,1.535,1.934,2.571,2.61,3.714  c0.588,0.991,0.518,1.865,0.701,2.974c0.522,3.151,1.218,5.96,0.83,9.2c-0.748,6.232-4.254,11.729-8.806,15.915  c-6.758,6.217-25.025,14.31-19.316,26.34c3.549,7.479,13.247,6.564,20.129,5.688c9.424-1.201,17.684-6.989,26.115-10.864  c5.414-2.487,18.486-6.234,23.994-3.036c0.271,0.157-2.602,1.54-2.896,1.586c-1.455,0.233-2.247-0.624-3.616-0.823  c-3.154-0.457-6.088-0.206-9.134,0.752c-6.22,1.957-11.419,6.181-17.11,9.211c-6.584,3.509-14.961,7.292-22.438,6.298  c-5.74-0.766-13.037-2.26-16.586,3.763c-5.313,9.017,6.78,14.897,14.082,15.831c4.863,0.622,8.853,0.177,13.492-1.419  c8.763-3.012,17.028-7.298,25.811-10.257c5.544-1.868,23.167-6.777,27.056,0.24c-2.262,0.544-3.521-0.863-5.521-1.139  c-7.699-1.054-17.236,2.349-24.492,4.702c-5.484,1.779-10.457,4.435-15.627,6.573c-3.42,1.413-6.926,2.602-10.724,3.157  c-2.843,0.419-5.687,1.104-8.648,0.787c-2.939-0.313-5.258-1.427-8.31-1.321c-7.905,0.27-14.059,11.79-6.975,17.404  c1.925,1.526,5.455,2.271,7.849,2.812c6.336,1.427,13.576,2.527,20.128,1.554c7.648-1.137,15.025-4.117,22.096-7.143  c1.889-0.809,11.403-6.255,11.507-1.595c0.051,2.312-9.834,5.781-11.667,6.567c-4.453,1.909-9.027,2.144-13.699,3.217  c-5.123,1.18-10.43,2.407-15.681,3.082c-4.271,0.55-9.268-0.102-13.58-0.556c-7.708-0.813-17.271-2.167-24.909-0.425  c-3.006,0.686-3.623,2.877-2.631,5.354c4.018,10.039,23.1,7.134,31.399,6.813c10.617-0.41,22.533,0.473,32.663-3.079  C254.272,609.658,254.488,609.581,254.702,609.506z"
   id="path5117" />
<g
   id="g5119">
	<path
   class="st5"
   d="M249.867,486.323c-0.36-0.712-0.93-1.389-1.3-1.805c-1.464-1.646-2.349-1.658-4.114-0.425   c-0.528,0.367-0.935,1.024-1.392,1.332c-1.299,0.871-2.972,0.389-4.42,0.563c-0.54,0.064-3.2,0.333-3.437,0.669   c-0.688,0.977,1.273,2.424,1.862,2.968c0.628,0.578,1.994,2.219,2.79,2.579c1.356,0.616,3.11-0.374,4.377-0.934   c0.962-0.425,5.39-2.122,5.866-3.228C250.323,487.531,250.167,486.914,249.867,486.323z"
   id="path5121" />
</g>
<g
   id="g5123">
	<path
   class="st17"
   d="M171.313,622.698c0.628,0.542,1.305,1.042,2.03,1.498c3.322,2.082,7.406,1.506,10.494,4.051   c2.686,2.217,4.139,4.849,5.043,8.319c1.036,3.98,1.721,8.384,6.729,7.571c0.428-3.726-4.232-5.29-5.51-8.485   c-1.831-4.582,0.189-5.287,2.652-8.252c1.22-1.47,1.207-2.837,1.971-4.542c0.891-1.981,2.6-3.464,3.583-5.398   c1.644-3.235,3.409-6.731,4.089-10.374c0.488-2.611,0.018-4.861-1.259-7.053c-0.203-0.349-6.243-10.707-6.967-9.3   c-0.335,0.654-1.538,1.95-2.244,2.648c0.532-0.837,1.192-1.094,1.597-1.956c0.617-1.32,0.67-3.313,0.479-4.729   c-0.452-3.334-2.453-5.129-4.768-6.709c-1.181,0.313-2.275,1.226-3.326,1.89c1.142-0.786,2.836-1.436,3.51-2.601   c0.856-1.478,0.699-4.224,0.503-5.861c-0.177-1.478-1.042-4.558-2.679-5.057c-1.282-0.39-2.868,1.232-3.896,1.807   c2.338-1.306,4.451-2.731,5.015-5.662c0.343-1.779,0.126-6.715-1.783-7.551c1.117-1.441,4.283-5.447,1.471-6.919   c1.165-1.558,3.502-7.575,1.707-9.294c1.555-2.353,2.88-4.945,2.629-7.854c-0.109-1.268-0.243-2.3-0.053-3.596   c0.035-0.236,0.949-3.541,1.066-3.396c-1.057-1.304-2.244-2.716-3.448-3.988c4.43,4.677,7.925,6.038,14.229,4.433   c-0.984,0.581-2.068,0.582-3.083,0.984c2.521,3.22,6.99,4.458,10.682,3.753c0.433-0.082,0.492-0.532,1.054-0.493   c0.835,0.061,2.113,1.302,2.852,1.688c1.944,1.021,6,2.979,8.051,1.332c1.271,2.614,6.999,1.451,9.112,1.105   c2.676-0.437,3.627-0.777,5.293-2.702c0.987,0.906,6.294,0.219,5.901-1.906c0.188,1.023,5.219-0.459,5.748-0.701   c1.861-0.854,3.361-2.345,4.464-4.14c1.36,2.898,9.777,0.348,10.394-2.655c2.189,0.295,10.697-0.242,9.55-4.319   c1.786,1.193,5.928,0.826,7.639-0.762c0.771-0.714,1.33-2.991,2.125-3.423c1.045-0.569,3.77,0.532,5.039,0.279   c0.748-0.148,1.227-0.264,1.724-0.823c0.112-0.123-0.099-0.714,0.042-0.819c0.699-0.525,0.963,0.003,2.268-0.087   c5.035-0.351,5.646-5.302,9.406-7.085c1.519-0.719,4.439,1.057,6.607,0.933c4.952-0.282,7.13-3.138,8.715-7.595   c10.47,5.744,10.186-11.022,3.99-15.911c-6.224-4.905-24.084-5.88-27.314,3.437c-2.387-0.986-5.174-0.588-7.573,0.327   c-1.313,0.499-1.563,1.678-2.493,2.615c-1.159,1.171-2.684,1.384-4.165,1.76c-2.43,0.613-3.488,1.402-3.991,4.085   c-1.035-0.172-2.099-0.223-3.145,0.001c-0.338,0.07-2.591,1.243-2.639,1.219c0.518,0.256,0.971,0.774,1.01,1.405   c-2.122-1.362-3.747-2.428-6.192-1.446c-2.015,0.809-5.769,2.888-5.304,5.618c-0.539-0.244-0.942-0.834-1.429-1.042   c-1.297-0.559-3.067-0.103-4.373,0.207c-1.786,0.423-6.167,1.381-5.454,4.118c-3.751,0.057-8.911-2.332-12.277,0.478   c-0.019,0.088-0.011,0.175,0.022,0.257c0.73,0.329,1.476,0.757,2.069,1.278c-0.038,0.062-0.136,0.276-0.164,0.354   c-2.44-1.036-4.816-3.501-7.724-2.394c-1.891,0.719-2.998,3.314-0.788,4.177c-3.787-0.887-7.225-1.638-10.833-3.092   c-2.646-1.066-4.998-0.896-7.722-0.642c-2.277,0.215-4.408-0.201-5.628-2.414c-1.035-1.878-1.217-4.229-3.262-5.357   c-1.977-1.092-7.146-0.757-8.365,1.447c-0.625-1.063-3.924-2.326-5.213-2.646c-2.491-0.617-5.261,0.303-7.339,1.738   c-2.329,1.612-3.943,3.436-4.906,6.253c-0.523,1.536-1.527,4-0.863,5.556c-2.07,0.519-3.636,2.807-4.297,4.81   c-0.393,1.192-0.202,2.673-0.587,3.778c-0.244,0.695-0.297,0.558-0.871,1.196c-1.766,1.971-3.165,3.1-3.479,6.042   c-0.121,1.121,0.291,2.717,0.033,3.731c-0.368,1.46-1.774,2.39-2.079,4.061c-0.206,1.126,0.061,2.047,0.076,3.18   c0.012,0.923-0.008,2.023-0.303,2.756c-0.238,0.593-0.905,1.041-1.143,1.665c-0.912,2.396-0.148,9.839,3.132,9.679   c-3.125-1.663-4.756,3.209-3.884,5.746c-2.832,0.158-3.591,6.247-3.349,8.371c0.312,2.72,2.68,6.852,5.795,6.303   c-6.231-3.703-6.931,6.766-6.071,10.974c0.376,1.848,1.339,3.748,2.106,5.424c0.701,1.523,0.815,1.608,0.369,3.053   c-0.833,2.685-1.219,4.578-0.148,7.353c0.438,1.139,1.679,3.771,2.997,3.893C163.901,609.733,165.672,617.835,171.313,622.698z"
   id="path5125" />
	
		<linearGradient
   id="XMLID_98_"
   gradientUnits="userSpaceOnUse"
   x1="207.1003"
   y1="404.3074"
   x2="181.0083"
   y2="370.5519"
   gradientTransform="matrix(0.9247 0.0579 -0.0738 1.1782 29.2747 133.0139)">
		<stop
   offset="0"
   style="stop-color:#F26522"
   id="stop5128" />
		<stop
   offset="0.2246"
   style="stop-color:#CA7F25"
   id="stop5130" />
		<stop
   offset="0.49"
   style="stop-color:#A59029"
   id="stop5132" />
		<stop
   offset="0.7172"
   style="stop-color:#87982D"
   id="stop5134" />
		<stop
   offset="0.8945"
   style="stop-color:#749B2F"
   id="stop5136" />
		<stop
   offset="1"
   style="stop-color:#6C9D31"
   id="stop5138" />
	</linearGradient>
	<path
   style="fill:url(#XMLID_98_);"
   d="M167.637,613.909c0.063,0.198,0.13,0.396,0.207,0.589c2.167,5.49,8.213,9.311,13.693,9.732   c7.725,0.594,13.021-3.018,17.149-9.779c2.074-3.395,2.521-7.402,1.493-11.247c-0.748-2.803-2.688-8.229-5.41-9.46   c-1.555-0.704-2.895,0.271-4.596,0.246c4.007,0.057,2.326-7.564,0.628-9.294c-1.24-1.262-3.583-1.599-5.264-1.772   c-2.449-0.255-4.244,1.331-6.64,1.339c-2.385,0.008-4.374-2.065-6.608-2.191c-2.983-0.168-4.559,2.777-5.031,5.544   c-0.565,3.3-1.224,2.974-2.985,5.454c-1.368,1.927-2.228,4.411-0.846,6.571c0.969,1.514,2.353,1.846,3.003,3.872   C167.502,606.838,166.591,610.583,167.637,613.909z"
   id="path5140" />
	<path
   class="st3"
   d="M163.64,593.793c2.753,3.688,7.36,6.075,11.659,3.663c0.33,0.195,0.642,0.856,0.892,1.162   c0.377-0.115,0.619-0.649,1.021-0.645c3.056,6.445,11.628-4.495,13.389-8.103c-5.328,8.472-17.802,3.226-12.04-6.059   c0.016,0.244,0.134,0.423,0.354,0.531c3.526-0.595,5.958-1.302,8.869-4.895c-7.388,6.138-12.741-1.072-11.415-8.909   c4.373,1.379,8.958-1.942,10.417-6.32c-6.965,8.693-13.621-1.493-9.57-8.618c2.706,2.146,7.351,1.177,9.372-1.629   c-7.159,2.958-10.294-0.344-8.684-7.65c1.207,1.032,2.455,0.975,4.086,0.942c-4.727-2.28-3.14-8.773-1.418-12.649   c1.979,0.945,3.349,2.447,5.488,1.83c-2.295-1.565-4.26-3.796-3.238-6.912c1.181-0.838,1.637-3.159,2.844-3.728   c2.121-0.996,3.673,1.354,5.419-0.748c-1.377-2.933-4.364-5.02-6.432-7.5c-1.803-2.164-2.91-4.415-4.624-6.688   c0.135,6.113-0.757,12.119-7.267,6.1c-0.188,3.653,4.805,5.188,7.662,5.74c-1.513,4.882-3.863,9.445-9.885,6.334   c1.778,2.391,4.607,2.813,7.351,2.941c-0.164,5.116-4.506,9.574-9.363,8.97c1.905,1.125,4.817,2.084,6.854,0.38   c-0.031,0.474-0.184,0.965-0.361,1.437c0.164,0.035,0.28-0.023,0.352-0.178c-1.188,4.296-0.588,9.951-6.647,8.938   c1.414,0.975,3.134,1.214,4.802,0.784c0.399,6.588-0.635,7.873-6.792,5.224c1.668,1.778,4.646,2.502,7.055,2.903   c-1.254,5.689-0.854,14.342-9.604,11.405c2.077,1.612,4.633,1.41,6.9,0.723c1.555,3.395,2.637,7.168,2.407,11.103   c-3.514,1.158-6.606,3.008-10.333,1.459c3.036,2.741,8.125-0.54,10.242,1.019c0.702,0.521,1.926,8.171,1.474,9.077   c-2.354,4.712-8.721-1.455-11.828-3.07c-0.112,2.913,3.465,4.663,5.752,5.651"
   id="path5142" />
	<path
   class="st4"
   d="M182.033,516.186c-0.255,6.666-3.207,13.046-4.69,19.478c-2.784,12.077-4.271,23.332-3.314,35.749   c1.084,14.05,2.672,39.362,15.433,47.736c-8.194-12.545-10.851-27.519-12.361-42.603c-1.706-17.033-0.662-39.888,8.142-54.787   c1.074,0.347,2.192,0.184,3.2,1.021c-3.292-2.888-6.008-5.125-7.313-9.48c0.184,1.606,0.366,3.646,0.75,5.339"
   id="path5144" />
	<path
   class="st3"
   d="M309.679,490.545c3.729,0.696,11.411,9.04,12.392-0.329c-0.37,3.56,0.111,10.815-5.729,7.953   c-0.247,7.127-5.36,4.608-9.837,5.9c-1.763,0.508-3.325-0.129-4.778,0.622c-2.095,1.089-3.351,4.019-5.633,5.204   c-3.229,1.681-8.191,3.705-11.684,2.917c-1.933,2.844-6.425,7.048-9.653,4.423c-2.52,3.944-6.752,3.817-10.236,5.142   c-2.113,0.805-3.307,2.291-5.718,2.441c-0.388,0.023-5.188-0.751-4.551-1.271c-2.175,1.783-6.061,7.266-8.803,4.988   c-2.479,3.937-7.004,2.411-10.806,3.98c-5.669,2.345-7.554,0.903-12.834-0.289c-1.72-0.39-3.266,0.133-5.426-0.736   c-1.627-0.654-2.766-2.255-4.639-2.365c-3.141-0.186-7.527,3.891-9.095-2.161c-2.541,0.617-6.599-0.145-9.01-1.196   c-1.431-0.621-5.462-5.422-6.013-5.479c3.379,0.352,6.569-3.808,9.524-4.966c-1.453,1.618-3.417,3.267-4.127,5.182   c1.577,0.519,3.845,0.211,5.32,1.096c0.938,0.561,1.321,2.829,2.935,3.492c4.213,1.731,7.75-3.897,10.076-7.336   c-0.756,1.832-6.753,8.389-6.372,9.631c1.281,4.171,8.418-0.693,10.005-1.702c2.944,6.508,6.903,1.606,7.647-3.271   c1.107-7.271-4.778-8.592-10.126-10.422c0.012,0.979-0.376,2.089-0.244,3.09c-0.633-5.109-13.664-3.954-13.492-5.997   c-0.126,1.51-0.639,3.003-0.843,4.35c0.342-1.536-0.688-3.822-2.634-4.726c0.36-2.851-1.961-6.351-3.196-9.11   c1.331,1.129,2.617,2.496,3.708,3.871c-0.241-0.674-0.247-1.479-0.426-2.142c1.671,2.352,6.218,6.547,8.907,4.088   c-0.259,0.731-0.094,1.789-0.424,2.616c2.473,2.837,4.436,1.686,4.836-1.706c1.468,1.23,11.142,9.158,10.267,2.689   c0.603,4.422,8.119,4.599,10.942,4.134c-0.305-0.989-0.274-2.119-0.962-3.12c2.369,3.626,11.598,5.9,9.667-1.264   c0.848,0.851,1.162,2.134,1.534,3.282c-0.28,0.445-0.61,0.484-0.942,0.842c1.939,1.577,5.212-0.027,7.869-0.037   c-2.399,0.768-4.838,3.351-7.298,2.087c0.51,1.456,1.078,2.988,1.642,4.416c-1.961-5.175-5.566-3.377-9.496-2.835   c0.539,1.224,0.888,2.814,1.692,3.977c-2.205-2.854-2.902-3.585-5.972-4.305c-1.897-0.445-2.491,0.849-4.574-0.271   c0.917,2.03,3.602,6.434,0.33,7.035c0.194,1.738-0.085,3.429-0.577,5.213c1.722,3.244,13.103,3.047,13.842-0.629   c1.797,1.422,3.825,0.301,5.343-0.688c0.051-0.668,0.293-1.244,0.442-1.81c4.362,2.864,9.333-1.405,10.941-5.604   c1.305,1.9,5.961,3.668,7.751,1.278c1.823-2.432-0.723-7.082-2.699-8.479c-1.621-1.146-2.836-0.365-4.254-1.361   c-1.271-0.896-3.019-3.695-3.835-4.506c3.359,2.94,14.833,4.896,9.748-2.836c0.886,1.472,1.959,2.738,3.284,3.835   c3.098-2.135,9.178-1.986,8.201-7.605c-0.094,1.343,0.587,2.406,0.945,3.595c1.628-0.718,3.331-1.473,5.021-2.156   c-3.979,2.481-8.231,4.146-12.132,6.563c0.815,0.659,1.484,1.68,2.314,2.233c-3.799-2.849-6.798-1.575-10.62,0.637   c2.782-1.61,5.044,5.58,6.329,6.646c1.953,1.626,9.976,1.905,6.757-1.903c-0.147-0.79,0.046-1.983-0.042-2.73   c3.995,0.46,7.692,4.955,10.826-0.793c0.187,0.195,0.38,0.388,0.572,0.575c0.49-1.818,0.24-3.585-0.818-5.089   c3.354,4.387,8.146,5.977,7.861-1.61c2.09,8.348,10.389,1.958,11.521-3.442c0.311-0.105,1.403-0.502,1.977-0.675   c8.094,3.117,19.312-4.357,7.519-10.164c-4.686-2.306-6.961,0.805-11.248,2.888c0.655,1.536,1.037,3.171,1.021,4.87   c-2.13-6.723-8.039-2.698-12.324-0.258c0.298,0.974,0.317,2.381,0.636,3.215c-0.767-1.855-1.358-2.131-2.783-3.229   c2.952-1.233,14.408-6.604,7.979-10.989c-3.288-2.241-9.004,1.313-8.529,5.397c-1.962-4.52,2.584-7.071,6.195-7.692   c2.587-0.443,2.921,0.009,5.234-0.882c2.387-0.918,3.853-3.841,6.516-2.474c-3.252,0.33-8.276,3.689-6.912,7.76"
   id="path5146" />
	<path
   class="st4"
   d="M193.044,500.878c0.812,0.582,2.168,0.87,3.06,1.259c-0.068-1.008,0.282-0.954,0.356-1.425   c1.466,8.013,13.063,8.712,18.9,9.882c12.364,2.474,25.542,3.269,37.778-0.681c14.436-4.654,30.053-10.002,43.361-17.672   c2.494-1.437,5.434-2.672,7.756-4.215c2.897-1.928,4.909-5.538,8.238-6.699c0.216-0.074-2.475,4.815-2.898,5.297   c-1.438,1.637-3.201,2.694-4.986,3.796c-3.676,2.262-7.985,5.127-12.059,6.427c-13.148,4.195-25.188,11.682-38.792,14.706   c-12.509,2.783-28.447,5.512-40.961,1.954c-3.75-1.065-7.591-2.044-11.17-3.656c-5.466-2.467-4.594-4.664-7.816-8.925"
   id="path5148" />
</g>
<g
   id="g5150">
	<path
   class="st27"
   d="M266.268,224.176c-1.949,0.846-4.077,1.445-6.932,2.129c-6.54,1.566-13.385,2.354-19.002,6.386   c0.412,0.211,1.289,0.575,1.721,0.719c4.846-3.823,12.765-5.605,18.718-6.479c2.648-0.389,7.104-1.241,9.568,0.347   c3.978,2.564,1.84,6.774,1.493,10.744c-0.193,2.226-1.521,7.645,1.479,8.698c2.147,0.755,5.074-1.721,6.563-2.988   c1.95-1.662,4.185-3.152,5.489-5.421c1.15-2,1.588-4.075,2.487-6.139c1.478-3.386,4.748-7.283,0.734-10.468   c-2.526-2.006-7.367-3.867-10.659-3.43c-1.97,0.263-4.127,0.981-5.705,2.219C270.041,222.205,268.247,223.317,266.268,224.176z"
   id="path5152" />
	<path
   class="st8"
   d="M278.377,233.075c-0.451,0.216-1.123,0.494-1.688,0.583c0.104,0.088,0.389,0.357,0.525,0.502   c-1.495,0.009-2.11,1.678-0.609,2.188c0.011,0.224-0.214,0.332-0.099,0.565c0.839,0.409,1.637,0.146,2.297-0.534   c-0.01,0.077,0.199,0.638,0.223,0.743c-0.977,0.24-1.032,0.229-0.591,1.17c-1.159,0.431-2.058,1.733-1.17,2.783   c0.222-0.255,0.792-0.522,1.073-0.88c-0.049,0.425,0.102,0.619,0.115,0.831c1.502-1.164,2.118-2.924,2.932-4.48   c-0.189-0.183-0.365-0.077-0.516-0.172c0.549-0.403,0.401-0.695,0.721-1.205c-0.424-0.224-0.631-0.346-1.107-0.408   c-0.014-0.021,0.297-0.373,0.273-0.528c-0.229-0.101-0.484,0.037-0.668-0.172c0.311-0.791,0.908-1.365,1.649-1.8   c0.048-0.035-0.531,0.011-0.518,0.014c0.525-0.16,0.945-0.494,1.353-1.253c0.77,0.852,1.571,0.868,1.571-0.493   c1.053,0.126,0.332,0.103,1.238-0.598c0.9-0.072,1.116-0.425,0.754-1.42c-0.202-0.064-0.35,0.12-0.429,0.104   c0.001,0.002,0.263-0.405,0.202-0.532c-0.286-0.083-0.589-0.096-0.895-0.167c2.759,0.649,1.663-3.881,1.352-4.706   c-0.365-0.97,0.35-1.196-0.668-1.951c-0.871-0.646-2.454-0.146-3.448-0.238c3.351,0.313,7.951,0.062,7.417,4.922   c-0.314,2.87-2.161,5.532-3.354,8.003c-0.103-0.189-0.203-0.407-0.322-0.608c-0.202-0.115-0.316,0.258-0.416,0.203   c-0.074-0.063-0.177-0.405-0.259-0.515c-0.575,0.453-0.717,0.315-0.836,0.984c-0.793,0.386-0.597,0.48-0.854,1.142   c0.581-0.069,1.279,0.182,1.86,0.021c-0.551,0.351-0.452,0.758-0.745,1.113c2.139,1.759-3.147,6.104-4.25,6.965   c-1.832,1.431-8.5,5.607-8.691,0.218c0.121,0.236,0.577,0.634,0.78,0.892c-0.273-0.347,2.14-0.556,2.24-0.556   c-0.063-1.071-0.94-2.529-2.2-1.907c0.157-1.344,1.914-2.879-0.081-3.649c-0.072-0.028,1.163-4.955,1.605-5.481   c0.113,0.091,0.236,0.104,0.37,0.035c0.722-0.367-2.794-9.15-6.229-7.49c0.478-0.526,1.144-0.982,1.701-1.461   c0.601-0.138,1.011-0.234,1.707-0.698c-1.972,1.472,0.515,2.515,1.822,1.643c-0.123-0.022-0.423,0-0.517-0.054   c0.516,0.024,1.188,0.308,1.688,0.448c-0.557,0.585-0.769,1.591-0.162,2.454c-0.128-0.164-0.419-0.414-0.516-0.529   c-0.639,1.074-0.219,2.272,0.916,2.797c0.005-0.009,0.36-0.343,0.396-0.373c-1.478,1.187,1.396,1.809,2.063,1.611   C277.5,231.9,277.84,232.547,278.377,233.075z"
   id="path5154" />
</g>
<path
   class="st8"
   d="M234.811,274.811c-0.181-0.188-0.229-0.543-0.096-1.134c-0.342-0.046-1.838-0.028-2.026,0.274  c0.354-0.572,0.4-1.436,0.514-2.072c0.059-0.329-1.836,1.211-2.021,1.593c-0.206,0.432-0.515,1.621-0.333,2.126  c0.449,1.243,1.899,1.584,3.042,1.884c2.653,0.696,6.55,0.901,9.21,0.068c1.866-0.584,3.654-1.218,4.226-3.341  c0.483-1.8-0.374-5.002-2.783-4.486c0.782,0.6,1.529,1.55,0.638,2.332c1.199,0.331,0.978,2.915-0.467,2.027  c-0.519,0.758-0.448,0.457-0.983,0.803c-0.071,0.212-0.292,0.698-0.428,0.882c-1.649,0.563-3.936-1.146-5.272-0.604  c0.177-0.072,0.574-0.438,0.942-0.533c0.86,0.667,1.463-0.406,1.53-1.145C239.349,272.91,235.653,275.685,234.811,274.811z"
   id="path5156" />
<path
   class="st8"
   d="M222.284,250.592c1.579,1.033,5.904,0.464,4.875-2.155c-0.89,0.387-2.295,0.566-1.942,1.775  c0.034,0.119-2.098,0.22-2.328,0.218c-0.168,0.168-0.174,0.354-0.014,0.555"
   id="path5158" />















































<polyline
   class="st24"
   points="238.975,274.627 185.453,207.199 279.006,225.191 "
   id="polyline5518" />
<line
   class="st24"
   x1="227.159"
   y1="248.437"
   x2="185.453"
   y2="207.199"
   id="line5520" />
<line
   class="st24"
   x1="289.067"
   y1="252.291"
   x2="240.956"
   y2="248.355"
   id="line5522" />
<line
   class="st24"
   x1="289.937"
   y1="283.348"
   x2="258.887"
   y2="280.283"
   id="line5524" />
<line
   class="st24"
   x1="294.315"
   y1="317.896"
   x2="270.697"
   y2="317.896"
   id="line5526" />
<line
   class="st6"
   x1="163.541"
   y1="374.754"
   x2="191.095"
   y2="388.312"
   id="line5528" />
<line
   class="st16"
   x1="349.551"
   y1="411.363"
   x2="303.498"
   y2="411.363"
   id="line5530" />
<line
   class="st16"
   x1="345.049"
   y1="468.35"
   x2="311.809"
   y2="471.389"
   id="line5532" />
<line
   class="st16"
   x1="178.849"
   y1="465.288"
   x2="209.028"
   y2="456.103"
   id="line5534" />
<line
   class="st16"
   x1="177.534"
   y1="479.72"
   x2="232.206"
   y2="453.478"
   id="line5536" />
<line
   class="st16"
   x1="346.796"
   y1="502.026"
   x2="283.805"
   y2="530.447"
   id="line5538" />
<line
   class="st16"
   x1="348.983"
   y1="549.698"
   x2="321.102"
   y2="549.008"
   id="line5540" />
<line
   class="st16"
   x1="268.63693"
   y1="640.64746"
   x2="244.67519"
   y2="653.8736"
   id="line5542"
   style="fill:none;stroke:#ed1c24;stroke-width:0.78531218" />
<line
   class="st16"
   x1="174.472"
   y1="642.857"
   x2="192.842"
   y2="642.857"
   id="line5544" />
<line
   class="st16"
   x1="158.29"
   y1="616.177"
   x2="175.784"
   y2="613.909"
   id="line5546" />
<circle
   class="st0"
   cx="176.222"
   cy="613.553"
   r="1.75"
   id="circle5548" />
<circle
   class="st0"
   cx="192.842"
   cy="642.42"
   r="1.75"
   id="circle5550" />
<circle
   class="st0"
   cx="242.701"
   cy="635.85901"
   r="1.75"
   id="circle5552"
   sodipodi:cx="242.701"
   sodipodi:cy="635.85901"
   sodipodi:rx="1.75"
   sodipodi:ry="1.75"
   transform="translate(2.4968415,17.834582)"
   style="fill:#ed1c24" />
<circle
   class="st0"
   cx="321.895"
   cy="549.363"
   r="1.749"
   id="circle5554" />
<circle
   class="st0"
   cx="283.805"
   cy="530.447"
   r="1.749"
   id="circle5556" />
<circle
   class="st0"
   cx="311.809"
   cy="471.389"
   r="1.749"
   id="circle5558" />
<circle
   class="st0"
   cx="232.206"
   cy="453.041"
   r="1.749"
   id="circle5560" />
<circle
   class="st0"
   cx="209.028"
   cy="456.103"
   r="1.749"
   id="circle5562" />
<circle
   class="st0"
   cx="303.498"
   cy="411.49"
   r="1.749"
   id="circle5564" />
<circle
   class="st5"
   cx="192.843"
   cy="388.965"
   r="1.749"
   id="circle5566" />
<circle
   class="st0"
   cx="270.697"
   cy="317.459"
   r="1.749"
   id="circle5568" />
<circle
   class="st0"
   cx="258.887"
   cy="280.283"
   r="1.749"
   id="circle5570" />
<circle
   class="st0"
   cx="240.956"
   cy="248.46"
   r="1.749"
   id="circle5572" />
<circle
   class="st0"
   cx="238.975"
   cy="274.19"
   r="1.749"
   id="circle5574" />
<circle
   class="st0"
   cx="227.159"
   cy="248.926"
   r="1.749"
   id="circle5576" />
<circle
   class="st0"
   cx="279.006"
   cy="225.19"
   r="1.749"
   id="circle5578" />
<text
   xml:space="preserve"
   style="font-size:12px;font-style:normal;font-variant:normal;font-weight:normal;font-stretch:normal;text-align:start;line-height:100%;letter-spacing:0px;word-spacing:0px;writing-mode:lr-tb;text-anchor:start;fill:#000000;fill-opacity:1;stroke:none;font-family:Helvetica;-inkscape-font-specification:Helvetica"
   x="110.28932"
   y="204.53421"
   id="text3286"
   sodipodi:linespacing="100%"><tspan
     sodipodi:role="line"
     id="tspan3288"
     x="110.28932"
     y="204.53421">Glande salivare</tspan></text>

<text
   xml:space="preserve"
   style="font-size:12px;font-style:normal;font-variant:normal;font-weight:normal;font-stretch:normal;text-align:start;line-height:100%;letter-spacing:0px;word-spacing:0px;writing-mode:lr-tb;text-anchor:start;fill:#000000;fill-opacity:1;stroke:none;font-family:Helvetica;-inkscape-font-specification:Helvetica"
   x="294.28717"
   y="286.59683"
   id="text3290"
   sodipodi:linespacing="100%"><tspan
     sodipodi:role="line"
     id="tspan3292"
     x="294.28717"
     y="286.59683">Epiglotă</tspan></text>

<text
   xml:space="preserve"
   style="font-size:12px;font-style:normal;font-variant:normal;font-weight:normal;font-stretch:normal;text-align:start;line-height:100%;letter-spacing:0px;word-spacing:0px;writing-mode:lr-tb;text-anchor:start;fill:#000000;fill-opacity:1;stroke:none;font-family:Helvetica;-inkscape-font-specification:Helvetica"
   x="296.8959"
   y="322.25116"
   id="text3294"
   sodipodi:linespacing="100%"><tspan
     sodipodi:role="line"
     id="tspan3296"
     x="296.8959"
     y="322.25116">Esofag</tspan></text>

<text
   xml:space="preserve"
   style="font-size:12px;font-style:normal;font-variant:normal;font-weight:normal;font-stretch:normal;text-align:start;line-height:100%;letter-spacing:0px;word-spacing:0px;writing-mode:lr-tb;text-anchor:start;fill:#000000;fill-opacity:1;stroke:none;font-family:Helvetica;-inkscape-font-specification:Helvetica"
   x="352.93054"
   y="414.75925"
   id="text3298"
   sodipodi:linespacing="100%"><tspan
     sodipodi:role="line"
     id="tspan3300"
     x="352.93054"
     y="414.75925">Stomac</tspan></text>

<text
   xml:space="preserve"
   style="font-size:12px;font-style:normal;font-variant:normal;font-weight:normal;font-stretch:normal;text-align:start;line-height:100%;letter-spacing:0px;word-spacing:0px;writing-mode:lr-tb;text-anchor:start;fill:#000000;fill-opacity:1;stroke:none;font-family:Helvetica;-inkscape-font-specification:Helvetica"
   x="136.39336"
   y="376.65622"
   id="text3302"
   sodipodi:linespacing="100%"><tspan
     sodipodi:role="line"
     id="tspan3304"
     x="136.39336"
     y="376.65622">Ficat</tspan></text>

<text
   xml:space="preserve"
   style="font-size:12px;font-style:normal;font-variant:normal;font-weight:normal;font-stretch:normal;text-align:start;line-height:100%;letter-spacing:0px;word-spacing:0px;writing-mode:lr-tb;text-anchor:start;fill:#000000;fill-opacity:1;stroke:none;font-family:Helvetica;-inkscape-font-specification:Helvetica"
   x="106.66557"
   y="463.36377"
   id="text3306"
   sodipodi:linespacing="100%"><tspan
     sodipodi:role="line"
     id="tspan3308"
     x="106.66557"
     y="463.36377">Vezica biliară</tspan></text>

<text
   xml:space="preserve"
   style="font-size:12px;font-style:normal;font-variant:normal;font-weight:normal;font-stretch:normal;text-align:start;line-height:100%;letter-spacing:0px;word-spacing:0px;writing-mode:lr-tb;text-anchor:start;fill:#000000;fill-opacity:1;stroke:none;font-family:Helvetica;-inkscape-font-specification:Helvetica"
   x="133.76978"
   y="480.73599"
   id="text3310"
   sodipodi:linespacing="100%"><tspan
     sodipodi:role="line"
     id="tspan3312"
     x="133.76978"
     y="480.73599">Duoden</tspan></text>

<text
   xml:space="preserve"
   style="font-size:12px;font-style:normal;font-variant:normal;font-weight:normal;font-stretch:normal;text-align:start;line-height:100%;letter-spacing:0px;word-spacing:0px;writing-mode:lr-tb;text-anchor:start;fill:#000000;fill-opacity:1;stroke:none;font-family:Helvetica;-inkscape-font-specification:Helvetica"
   x="349.27274"
   y="471.69626"
   id="text3314"
   sodipodi:linespacing="100%"><tspan
     sodipodi:role="line"
     id="tspan3316"
     x="349.27274"
     y="471.69626">Pancreas</tspan></text>

<text
   xml:space="preserve"
   style="font-size:12px;font-style:normal;font-variant:normal;font-weight:normal;font-stretch:normal;text-align:start;line-height:100%;letter-spacing:0px;word-spacing:0px;writing-mode:lr-tb;text-anchor:start;fill:#000000;fill-opacity:1;stroke:none;font-family:Helvetica;-inkscape-font-specification:Helvetica"
   x="351.41287"
   y="553.02191"
   id="text3322"
   sodipodi:linespacing="100%"><tspan
     sodipodi:role="line"
     id="tspan3324"
     x="351.41287"
     y="553.02191">Colon </tspan><tspan
     sodipodi:role="line"
     x="351.41287"
     y="565.02191"
     id="tspan3344">descendent</tspan></text>

<text
   xml:space="preserve"
   style="font-size:12px;font-style:normal;font-variant:normal;font-weight:normal;font-stretch:normal;text-align:start;line-height:100%;letter-spacing:0px;word-spacing:0px;writing-mode:lr-tb;text-anchor:start;fill:#000000;fill-opacity:1;stroke:none;font-family:Helvetica;-inkscape-font-specification:Helvetica"
   x="117.42315"
   y="619.36658"
   id="text3326"
   sodipodi:linespacing="100%"><tspan
     sodipodi:role="line"
     id="tspan3328"
     x="117.42315"
     y="619.36658">Cecum</tspan></text>

<text
   xml:space="preserve"
   style="font-size:12px;font-style:normal;font-variant:normal;font-weight:normal;font-stretch:normal;text-align:start;line-height:100%;letter-spacing:0px;word-spacing:0px;writing-mode:lr-tb;text-anchor:start;fill:#000000;fill-opacity:1;stroke:none;font-family:Helvetica;-inkscape-font-specification:Helvetica"
   x="121.70346"
   y="641.8382"
   id="text3330"
   sodipodi:linespacing="100%"><tspan
     sodipodi:role="line"
     id="tspan3332"
     x="121.70346"
     y="641.8382">Apendice </tspan><tspan
     sodipodi:role="line"
     x="121.70346"
     y="653.8382"
     id="tspan3334">vermiform</tspan></text>

<text
   xml:space="preserve"
   style="font-size:12px;font-style:normal;font-variant:normal;font-weight:normal;font-stretch:normal;text-align:start;line-height:100%;letter-spacing:0px;word-spacing:0px;writing-mode:lr-tb;text-anchor:start;fill:#000000;fill-opacity:1;stroke:none;font-family:Helvetica;-inkscape-font-specification:Helvetica"
   x="269.03503"
   y="647.27502"
   id="text3336"
   sodipodi:linespacing="100%"><tspan
     sodipodi:role="line"
     id="tspan3338"
     x="269.03503"
     y="647.27502">Rect</tspan></text>

<text
   xml:space="preserve"
   style="font-size:12px;font-style:normal;font-variant:normal;font-weight:normal;font-stretch:normal;text-align:start;line-height:100%;letter-spacing:0px;word-spacing:0px;writing-mode:lr-tb;text-anchor:start;fill:#000000;fill-opacity:1;stroke:none;font-family:Helvetica;-inkscape-font-specification:Helvetica"
   x="216.22675"
   y="680.00415"
   id="text3340"
   sodipodi:linespacing="100%"><tspan
     sodipodi:role="line"
     id="tspan3342"
     x="216.22675"
     y="680.00415">Orificiu anal</tspan></text>

<line
   style="fill:none;stroke:#ed1c24;stroke-width:0.65609998;overflow:visible"
   class="st16"
   x1="344.03876"
   y1="603.11365"
   x2="277.66519"
   y2="583.8739"
   id="line5538-1" /><circle
   sodipodi:ry="1.749"
   sodipodi:rx="1.749"
   sodipodi:cy="530.44702"
   sodipodi:cx="283.80499"
   transform="translate(-6.9406675,53.25041)"
   style="fill:#ed1c24;overflow:visible"
   class="st0"
   cx="283.80499"
   cy="530.44702"
   r="1.749"
   id="circle5556-4" /><circle
   sodipodi:ry="1.749"
   sodipodi:rx="1.749"
   sodipodi:cy="530.44702"
   sodipodi:cx="283.80499"
   transform="translate(-31.552393,88.562886)"
   style="fill:#ed1c24;overflow:visible"
   class="st0"
   cx="283.80499"
   cy="530.44702"
   r="1.749"
   id="circle5556-0" /><circle
   sodipodi:ry="1.749"
   sodipodi:rx="1.749"
   sodipodi:cy="530.44702"
   sodipodi:cx="283.80499"
   transform="translate(-32.055339,-15.729815)"
   style="fill:#ed1c24;overflow:visible"
   class="st0"
   cx="283.80499"
   cy="530.44702"
   r="1.749"
   id="circle5556-0-9" /><circle
   sodipodi:ry="1.749"
   sodipodi:rx="1.749"
   sodipodi:cy="530.44702"
   sodipodi:cx="283.80499"
   transform="translate(-108.2255,28.156304)"
   style="fill:#ed1c24;overflow:visible"
   class="st0"
   cx="283.80499"
   cy="530.44702"
   r="1.749"
   id="circle5556-0-4" /><circle
   sodipodi:ry="1.749"
   sodipodi:rx="1.749"
   sodipodi:cy="530.44702"
   sodipodi:cx="283.80499"
   transform="translate(-32.055339,-228.60272)"
   style="fill:#ed1c24;overflow:visible"
   class="st0"
   cx="283.80499"
   cy="530.44702"
   r="1.749"
   id="circle5556-0-45" /><line
   style="fill:none;stroke:#ed1c24;stroke-width:0.65609998;overflow:visible"
   class="st16"
   x1="320.21353"
   y1="637.17273"
   x2="253.40271"
   y2="619.51111"
   id="line5538-1-5" /><line
   style="fill:none;stroke:#ed1c24;stroke-width:0.90747625;overflow:visible"
   class="st16"
   x1="250.19751"
   y1="514.14343"
   x2="169.31285"
   y2="499.65341"
   id="line5538-1-1" /><line
   style="fill:none;stroke:#ed1c24;stroke-width:0.65609998;overflow:visible"
   class="st16"
   x1="251.64388"
   y1="302.1947"
   x2="184.0085"
   y2="316.37488"
   id="line5538-1-7" /><line
   style="fill:none;stroke:#ed1c24;stroke-width:1.06424701;overflow:visible"
   class="st16"
   x1="147.61569"
   y1="562.81207"
   x2="174.53809"
   y2="558.93451"
   id="line5546-5" /><text
   xml:space="preserve"
   style="font-size:12px;font-style:normal;font-variant:normal;font-weight:normal;font-stretch:normal;text-align:start;line-height:100%;letter-spacing:0px;word-spacing:0px;writing-mode:lr-tb;text-anchor:start;fill:#000000;fill-opacity:1;stroke:none;font-family:Helvetica;-inkscape-font-specification:Helvetica"
   x="322.371"
   y="641.83563"
   id="text3510"
   sodipodi:linespacing="100%"><tspan
     sodipodi:role="line"
     id="tspan3512"
     x="322.371"
     y="641.83563">Colon sigmoid</tspan></text>

<text
   xml:space="preserve"
   style="font-size:12px;font-style:normal;font-variant:normal;font-weight:normal;font-stretch:normal;text-align:center;line-height:100%;letter-spacing:0px;word-spacing:0px;writing-mode:lr-tb;text-anchor:middle;fill:#000000;fill-opacity:1;stroke:none;font-family:Helvetica;-inkscape-font-specification:Helvetica"
   x="127.15343"
   y="560.62109"
   id="text3514"
   sodipodi:linespacing="100%"><tspan
     sodipodi:role="line"
     id="tspan3516"
     x="128.65343"
     y="560.62109">Colon </tspan><tspan
     sodipodi:role="line"
     x="127.15343"
     y="572.62109"
     id="tspan3518">ascendent</tspan></text>

<text
   xml:space="preserve"
   style="font-size:12px;font-style:normal;font-variant:normal;font-weight:normal;font-stretch:normal;text-align:end;line-height:100%;letter-spacing:0px;word-spacing:0px;writing-mode:lr-tb;text-anchor:end;fill:#000000;fill-opacity:1;stroke:none;font-family:Helvetica;-inkscape-font-specification:Helvetica"
   x="165.99516"
   y="501.09738"
   id="text3520"
   sodipodi:linespacing="100%"><tspan
     sodipodi:role="line"
     id="tspan3522"
     x="168.99516"
     y="501.09738">Colon </tspan><tspan
     sodipodi:role="line"
     x="165.99516"
     y="513.09735"
     id="tspan3524">transvers</tspan></text>

<text
   xml:space="preserve"
   style="font-size:12px;font-style:normal;font-variant:normal;font-weight:normal;font-stretch:normal;text-align:start;line-height:100%;letter-spacing:0px;word-spacing:0px;writing-mode:lr-tb;text-anchor:start;fill:#000000;fill-opacity:1;stroke:none;font-family:Helvetica;-inkscape-font-specification:Helvetica"
   x="350.61954"
   y="503.61954"
   id="text3526"
   sodipodi:linespacing="100%"><tspan
     sodipodi:role="line"
     id="tspan3528"
     x="350.61954"
     y="503.61954">Jejun</tspan></text>

<text
   xml:space="preserve"
   style="font-size:12px;font-style:normal;font-variant:normal;font-weight:normal;font-stretch:normal;text-align:start;line-height:100%;letter-spacing:0px;word-spacing:0px;writing-mode:lr-tb;text-anchor:start;fill:#000000;fill-opacity:1;stroke:none;font-family:Helvetica;-inkscape-font-specification:Helvetica"
   x="349.10623"
   y="608.03827"
   id="text3530"
   sodipodi:linespacing="100%"><tspan
     sodipodi:role="line"
     id="tspan3532"
     x="349.10623"
     y="608.03827">Ileon</tspan></text>

<text
   xml:space="preserve"
   style="font-size:12px;font-style:normal;font-variant:normal;font-weight:normal;font-stretch:normal;text-align:start;line-height:100%;letter-spacing:0px;word-spacing:0px;writing-mode:lr-tb;text-anchor:start;fill:#000000;fill-opacity:1;stroke:none;font-family:Helvetica;-inkscape-font-specification:Helvetica"
   x="292.60913"
   y="255.43599"
   id="text3534"
   sodipodi:linespacing="100%"><tspan
     sodipodi:role="line"
     id="tspan3536"
     x="292.60913"
     y="255.43599">Limbă</tspan></text>

<text
   xml:space="preserve"
   style="font-size:12px;font-style:normal;font-variant:normal;font-weight:normal;font-stretch:normal;text-align:start;line-height:100%;letter-spacing:0px;word-spacing:0px;writing-mode:lr-tb;text-anchor:start;fill:#000000;fill-opacity:1;stroke:none;font-family:Helvetica;-inkscape-font-specification:Helvetica"
   x="146.02658"
   y="314.14926"
   id="text3538"
   sodipodi:linespacing="100%"><tspan
     sodipodi:role="line"
     id="tspan3540"
     x="146.02658"
     y="314.14926">Trahee</tspan></text>

</svg>