<?xml version="1.0" encoding="UTF-8" standalone="no"?>
<!-- Created with Inkscape (http://www.inkscape.org/) -->

<svg
   xmlns:dc="http://purl.org/dc/elements/1.1/"
   xmlns:cc="http://creativecommons.org/ns#"
   xmlns:rdf="http://www.w3.org/1999/02/22-rdf-syntax-ns#"
   xmlns:svg="http://www.w3.org/2000/svg"
   xmlns="http://www.w3.org/2000/svg"
   xmlns:sodipodi="http://sodipodi.sourceforge.net/DTD/sodipodi-0.dtd"
   xmlns:inkscape="http://www.inkscape.org/namespaces/inkscape"
   width="114.87132mm"
   height="77.666542mm"
   viewBox="0 0 114.87132 77.666542"
   version="1.1"
   id="svg8"
   inkscape:version="0.92.3 (2405546, 2018-03-11)"
   sodipodi:docname="chain_of_being.svg">
  <defs
     id="defs2" />
  <sodipodi:namedview
     id="base"
     pagecolor="#ffffff"
     bordercolor="#666666"
     borderopacity="1.0"
     inkscape:pageopacity="0.0"
     inkscape:pageshadow="2"
     inkscape:zoom="1.4"
     inkscape:cx="183.02171"
     inkscape:cy="219.54676"
     inkscape:document-units="mm"
     inkscape:current-layer="layer1"
     showgrid="false"
     inkscape:window-width="1920"
     inkscape:window-height="986"
     inkscape:window-x="-11"
     inkscape:window-y="-11"
     inkscape:window-maximized="1" />
  <metadata
     id="metadata5">
    <rdf:RDF>
      <cc:Work
         rdf:about="">
        <dc:format>image/svg+xml</dc:format>
        <dc:type
           rdf:resource="http://purl.org/dc/dcmitype/StillImage" />
        <dc:title />
      </cc:Work>
    </rdf:RDF>
  </metadata>
  <g
     inkscape:label="Layer 1"
     inkscape:groupmode="layer"
     id="layer1"
     transform="translate(70.799133,-19.588656)">
    <g
       id="g4618"
       transform="matrix(0.797697,0,0,0.797697,-88.409913,-21.120485)">
      <path
         id="path4518"
         d="M 94.078874,51.112033 22.18337,148.26451"
         style="fill:none;fill-rule:evenodd;stroke:#000000;stroke-width:0.26458332px;stroke-linecap:butt;stroke-linejoin:miter;stroke-opacity:1"
         inkscape:connector-curvature="0" />
      <path
         id="path4518-6"
         d="M 94.078874,51.112033 165.97438,148.26451"
         style="fill:none;fill-rule:evenodd;stroke:#000000;stroke-width:0.26458332px;stroke-linecap:butt;stroke-linejoin:miter;stroke-opacity:1"
         inkscape:connector-curvature="0" />
      <path
         id="path4535"
         d="M 22.18337,148.26451 H 165.97438"
         style="fill:none;fill-rule:evenodd;stroke:#000000;stroke-width:0.26458332px;stroke-linecap:butt;stroke-linejoin:miter;stroke-opacity:1"
         inkscape:connector-curvature="0" />
    </g>
    <g
       aria-label="Angels"
       style="font-style:normal;font-weight:normal;font-size:2.82222223px;line-height:1.25;font-family:sans-serif;letter-spacing:0px;word-spacing:0px;writing-mode:lr-tb;fill:#000000;fill-opacity:1;stroke:none;stroke-width:0.26458332"
       id="text4539">
      <path
         d="m -19.421936,32.579091 -0.613571,1.663809 h 1.229382 z m -0.255281,-0.445623 h 0.512802 l 1.274169,3.343293 h -0.470256 l -0.304546,-0.857657 h -1.507057 l -0.304547,0.857657 h -0.476973 z"
         style="font-size:4.58611107px;stroke-width:0.26458332"
         id="path4834"
         inkscape:connector-curvature="0" />
      <path
         d="m -15.337431,33.962986 v 1.513775 h -0.412033 v -1.500339 q 0,-0.356051 -0.138837,-0.532956 -0.138838,-0.176906 -0.416512,-0.176906 -0.333658,0 -0.526239,0.212735 -0.192581,0.212734 -0.192581,0.579981 v 1.417485 h -0.414272 v -2.50803 h 0.414272 v 0.389641 q 0.147795,-0.226171 0.347094,-0.338136 0.201538,-0.111966 0.463537,-0.111966 0.432188,0 0.65388,0.268717 0.221691,0.266479 0.221691,0.785999 z"
         style="font-size:4.58611107px;stroke-width:0.26458332"
         id="path4836"
         inkscape:connector-curvature="0" />
      <path
         d="m -12.860751,34.193635 q 0,-0.447862 -0.185863,-0.694187 -0.183624,-0.246324 -0.517281,-0.246324 -0.331419,0 -0.517282,0.246324 -0.183623,0.246325 -0.183623,0.694187 0,0.445623 0.183623,0.691947 0.185863,0.246325 0.517282,0.246325 0.333657,0 0.517281,-0.246325 0.185863,-0.246324 0.185863,-0.691947 z m 0.412033,0.971861 q 0,0.640444 -0.284393,0.951708 -0.284392,0.313504 -0.871092,0.313504 -0.217213,0 -0.409794,-0.03359 -0.192581,-0.03135 -0.373965,-0.09853 v -0.400836 q 0.181384,0.09853 0.35829,0.145555 0.176905,0.04702 0.360529,0.04702 0.405315,0 0.606853,-0.212734 0.201539,-0.210496 0.201539,-0.638204 v -0.203778 q -0.127641,0.221692 -0.32694,0.331419 -0.199299,0.109726 -0.476974,0.109726 -0.461298,0 -0.743451,-0.351572 -0.282153,-0.351572 -0.282153,-0.931554 0,-0.582221 0.282153,-0.933793 0.282153,-0.351572 0.743451,-0.351572 0.277675,0 0.476974,0.109726 0.199299,0.109727 0.32694,0.331418 v -0.380683 h 0.412033 z"
         style="font-size:4.58611107px;stroke-width:0.26458332"
         id="path4838"
         inkscape:connector-curvature="0" />
      <path
         d="m -9.4547574,34.119738 v 0.201538 h -1.8944576 q 0.02687,0.425469 0.255281,0.6494 0.230649,0.221692 0.640443,0.221692 0.237367,0 0.4590594,-0.05822 0.2239312,-0.05822 0.4433838,-0.174666 v 0.38964 q -0.2216919,0.09405 -0.4545802,0.143316 -0.232889,0.04927 -0.472495,0.04927 -0.600136,0 -0.951708,-0.349333 -0.349332,-0.349332 -0.349332,-0.944989 0,-0.615811 0.331418,-0.976341 0.333657,-0.362768 0.897964,-0.362768 0.506085,0 0.7994344,0.32694 0.2955892,0.3247 0.2955892,0.884528 z m -0.4120334,-0.120923 q -0.00448,-0.338136 -0.1903412,-0.539674 -0.183624,-0.201538 -0.48817,-0.201538 -0.344854,0 -0.55311,0.19482 -0.206017,0.19482 -0.237368,0.548631 z"
         style="font-size:4.58611107px;stroke-width:0.26458332"
         id="path4840"
         inkscape:connector-curvature="0" />
      <path
         d="m -8.7784852,31.992391 h 0.4120335 v 3.48437 h -0.4120335 z"
         style="font-size:4.58611107px;stroke-width:0.26458332"
         id="path4842"
         inkscape:connector-curvature="0" />
      <path
         d="m -5.9076876,33.042629 v 0.38964 q -0.1746663,-0.08957 -0.3627685,-0.134359 -0.1881022,-0.04479 -0.3896403,-0.04479 -0.3067858,0 -0.4612983,0.09405 -0.1522732,0.09405 -0.1522732,0.282153 0,0.143316 0.1097263,0.226171 0.1097263,0.08062 0.4411444,0.154512 l 0.1410767,0.03135 q 0.4389052,0.09405 0.6225288,0.266478 0.1858629,0.170188 0.1858629,0.476973 0,0.349333 -0.2776747,0.553111 -0.2754354,0.203777 -0.7591268,0.203777 -0.2015381,0 -0.4209907,-0.04031 -0.2172133,-0.03807 -0.459059,-0.116444 V 34.95948 q 0.2284099,0.118683 0.4501018,0.179145 0.2216919,0.05822 0.4389051,0.05822 0.2911106,0 0.4478624,-0.09853 0.1567519,-0.100769 0.1567519,-0.282153 0,-0.167949 -0.1142049,-0.257521 -0.1119656,-0.08957 -0.494888,-0.172427 l -0.143316,-0.03359 q -0.3829223,-0.08062 -0.55311,-0.246324 -0.1701878,-0.167949 -0.1701878,-0.459059 0,-0.353811 0.250803,-0.546392 0.2508029,-0.192581 0.7121012,-0.192581 0.2284099,0 0.4299479,0.03359 0.2015381,0.03359 0.3717258,0.100769 z"
         style="font-size:4.58611107px;stroke-width:0.26458332"
         id="path4844"
         inkscape:connector-curvature="0" />
      <text
         xml:space="preserve"
         style="font-style:normal;font-weight:normal;font-size:2.82222223px;line-height:1.25;font-family:sans-serif;letter-spacing:0px;word-spacing:0px;writing-mode:lr-tb;fill:#000000;fill-opacity:1;stroke:none;stroke-width:0.07000434"
         x="-62.380142"
         y="37.654091"
         id="text945"><tspan
           sodipodi:role="line"
           id="tspan943"
           x="-62.380142"
           y="40.151096"
           style="stroke-width:0.07000434"></tspan></text>
    </g>
    <g
       aria-label="Stars"
       style="font-style:normal;font-weight:normal;font-size:2.82222223px;line-height:1.25;font-family:sans-serif;letter-spacing:0px;word-spacing:0px;writing-mode:lr-tb;fill:#000000;fill-opacity:1;stroke:none;stroke-width:0.26458332"
       id="text4543">
      <path
         d="m -16.850085,39.257351 v 0.441144 q -0.257521,-0.123162 -0.485931,-0.183624 -0.228409,-0.06046 -0.441144,-0.06046 -0.369487,0 -0.571025,0.143316 -0.199298,0.143316 -0.199298,0.407555 0,0.221692 0.132119,0.335897 0.134359,0.111965 0.506085,0.181384 l 0.273196,0.05598 q 0.506084,0.09629 0.745691,0.340375 0.241845,0.241846 0.241845,0.649401 0,0.48593 -0.326939,0.736733 -0.324701,0.250803 -0.953947,0.250803 -0.237367,0 -0.506085,-0.05374 -0.266478,-0.05374 -0.55311,-0.158991 v -0.465777 q 0.275435,0.154512 0.539674,0.232888 0.264239,0.07838 0.519521,0.07838 0.387401,0 0.597896,-0.152273 0.210495,-0.152273 0.210495,-0.434427 0,-0.246324 -0.152273,-0.385161 -0.150034,-0.138838 -0.494888,-0.208256 l -0.275435,-0.05374 q -0.506085,-0.100769 -0.732255,-0.315743 -0.226171,-0.214974 -0.226171,-0.597896 0,-0.443384 0.311265,-0.698666 0.313503,-0.255281 0.862135,-0.255281 0.235128,0 0.479213,0.04255 0.244085,0.04255 0.499366,0.127641 z"
         style="font-size:4.58611107px;stroke-width:0.26458332"
         id="path4823"
         inkscape:connector-curvature="0" />
      <path
         d="m -15.553523,39.270786 v 0.712102 h 0.848699 v 0.320221 h -0.848699 v 1.361502 q 0,0.306786 0.08285,0.394119 0.08509,0.08733 0.342615,0.08733 h 0.42323 v 0.344854 h -0.42323 q -0.476973,0 -0.658358,-0.176905 -0.181384,-0.179145 -0.181384,-0.649401 v -1.361502 h -0.302307 v -0.320221 h 0.302307 v -0.712102 z"
         style="font-size:4.58611107px;stroke-width:0.26458332"
         id="path4825"
         inkscape:connector-curvature="0" />
      <path
         d="m -13.020861,41.230185 q -0.499367,0 -0.691948,0.114204 -0.192581,0.114205 -0.192581,0.389641 0,0.219452 0.143316,0.349332 0.145556,0.127641 0.394119,0.127641 0.342615,0 0.548632,-0.241846 0.208256,-0.244085 0.208256,-0.647161 v -0.09181 z m 0.821827,-0.170188 v 1.43092 h -0.412033 v -0.380683 q -0.141077,0.22841 -0.351572,0.338136 -0.210495,0.107487 -0.515042,0.107487 -0.385162,0 -0.613571,-0.214974 -0.226171,-0.217213 -0.226171,-0.579982 0,-0.423229 0.282153,-0.638203 0.284393,-0.214974 0.84646,-0.214974 h 0.577743 v -0.04031 q 0,-0.284393 -0.188102,-0.438905 -0.185863,-0.156752 -0.523999,-0.156752 -0.214974,0 -0.418752,0.0515 -0.203777,0.0515 -0.391879,0.154513 v -0.380683 q 0.22617,-0.08733 0.438905,-0.12988 0.212734,-0.04479 0.414273,-0.04479 0.544152,0 0.81287,0.282154 0.268717,0.282153 0.268717,0.855417 z"
         style="font-size:4.58611107px;stroke-width:0.26458332"
         id="path4827"
         inkscape:connector-curvature="0" />
      <path
         d="m -9.8947818,40.368049 q -0.069419,-0.04031 -0.1522732,-0.05822 -0.08061,-0.02015 -0.179145,-0.02015 -0.349333,0 -0.537435,0.22841 -0.185863,0.226171 -0.185863,0.65164 v 1.321194 h -0.414272 v -2.508029 h 0.414272 v 0.38964 q 0.12988,-0.22841 0.338136,-0.338136 0.208256,-0.111966 0.506085,-0.111966 0.04255,0 0.09405,0.0067 0.051504,0.0045 0.1142049,0.01568 z"
         style="font-size:4.58611107px;stroke-width:0.26458332"
         id="path4829"
         inkscape:connector-curvature="0" />
      <path
         d="m -7.8592466,40.056785 v 0.38964 q -0.1746664,-0.08957 -0.3627686,-0.134358 -0.1881022,-0.04479 -0.3896403,-0.04479 -0.3067857,0 -0.4612983,0.09405 -0.1522732,0.09405 -0.1522732,0.282154 0,0.143316 0.1097263,0.22617 0.1097263,0.08062 0.4411445,0.154513 l 0.1410766,0.03135 q 0.4389052,0.09405 0.6225288,0.266478 0.1858629,0.170188 0.1858629,0.476974 0,0.349332 -0.2776747,0.55311 -0.2754354,0.203777 -0.7591268,0.203777 -0.2015381,0 -0.4209907,-0.04031 -0.2172132,-0.03807 -0.4590589,-0.116445 v -0.425469 q 0.2284098,0.118684 0.4501017,0.179145 0.2216919,0.05822 0.4389052,0.05822 0.2911105,0 0.4478624,-0.09853 0.1567518,-0.100769 0.1567518,-0.282153 0,-0.167948 -0.1142049,-0.257521 -0.1119656,-0.08957 -0.494888,-0.172427 l -0.1433159,-0.03359 q -0.3829224,-0.08062 -0.5531101,-0.246325 -0.1701877,-0.167948 -0.1701877,-0.459059 0,-0.353811 0.2508029,-0.546392 0.250803,-0.192581 0.7121013,-0.192581 0.2284098,0 0.4299479,0.03359 0.2015381,0.03359 0.3717258,0.100769 z"
         style="font-size:4.58611107px;stroke-width:0.26458332"
         id="path4831"
         inkscape:connector-curvature="0" />
    </g>
    <g
       aria-label="Kings"
       style="font-style:normal;font-weight:normal;font-size:2.82222223px;line-height:1.25;font-family:sans-serif;letter-spacing:0px;word-spacing:0px;writing-mode:lr-tb;fill:#000000;fill-opacity:1;stroke:none;stroke-width:0.26458332"
       id="text4543-0">
      <path
         d="m -19.273022,45.353397 h 0.452341 v 1.413006 l 1.500339,-1.413006 h 0.582221 l -1.65933,1.558561 1.778014,1.784732 h -0.595657 l -1.605587,-1.610066 v 1.610066 h -0.452341 z"
         style="font-size:4.58611107px;stroke-width:0.26458332"
         id="path4812"
         inkscape:connector-curvature="0" />
      <path
         d="m -16.281301,46.18866 h 0.412034 v 2.50803 h -0.412034 z m 0,-0.97634 h 0.412034 v 0.52176 h -0.412034 z"
         style="font-size:4.58611107px;stroke-width:0.26458332"
         id="path4814"
         inkscape:connector-curvature="0" />
      <path
         d="m -12.924572,47.182915 v 1.513775 h -0.412034 v -1.500339 q 0,-0.356051 -0.138837,-0.532957 -0.138837,-0.176905 -0.416512,-0.176905 -0.333657,0 -0.526238,0.212734 -0.192581,0.212735 -0.192581,0.579982 v 1.417485 h -0.414273 v -2.50803 h 0.414273 v 0.38964 q 0.147795,-0.22617 0.347093,-0.338136 0.201538,-0.111965 0.463538,-0.111965 0.432187,0 0.653879,0.268717 0.221692,0.266478 0.221692,0.785999 z"
         style="font-size:4.58611107px;stroke-width:0.26458332"
         id="path4816"
         inkscape:connector-curvature="0" />
      <path
         d="m -10.447893,47.413564 q 0,-0.447863 -0.185863,-0.694187 -0.183623,-0.246324 -0.517281,-0.246324 -0.331418,0 -0.517281,0.246324 -0.183624,0.246324 -0.183624,0.694187 0,0.445623 0.183624,0.691947 0.185863,0.246325 0.517281,0.246325 0.333658,0 0.517281,-0.246325 0.185863,-0.246324 0.185863,-0.691947 z m 0.412033,0.971861 q 0,0.640443 -0.284392,0.951708 -0.284393,0.313504 -0.871093,0.313504 -0.217213,0 -0.409794,-0.03359 -0.192581,-0.03135 -0.373965,-0.09853 V 49.11768 q 0.181384,0.09853 0.35829,0.145556 0.176906,0.04702 0.360529,0.04702 0.405316,0 0.606854,-0.212735 0.201538,-0.210495 0.201538,-0.638203 V 48.25554 q -0.127641,0.221692 -0.32694,0.331418 -0.199298,0.109727 -0.476973,0.109727 -0.461298,0 -0.743452,-0.351572 -0.282153,-0.351572 -0.282153,-0.931554 0,-0.582221 0.282153,-0.933793 0.282154,-0.351572 0.743452,-0.351572 0.277675,0 0.476973,0.109726 0.199299,0.109726 0.32694,0.331418 V 46.18866 h 0.412033 z"
         style="font-size:4.58611107px;stroke-width:0.26458332"
         id="path4818"
         inkscape:connector-curvature="0" />
      <path
         d="m -7.5882915,46.262557 v 0.389641 q -0.1746664,-0.08957 -0.3627686,-0.134359 -0.1881022,-0.04479 -0.3896403,-0.04479 -0.3067857,0 -0.4612983,0.09405 -0.1522732,0.09405 -0.1522732,0.282153 0,0.143316 0.1097263,0.226171 0.1097263,0.08061 0.4411445,0.154512 l 0.1410766,0.03135 q 0.4389052,0.09405 0.6225288,0.266478 0.1858629,0.170187 0.1858629,0.476973 0,0.349333 -0.2776747,0.55311 -0.2754354,0.203778 -0.7591268,0.203778 -0.2015381,0 -0.4209907,-0.04031 -0.2172132,-0.03807 -0.4590589,-0.116444 v -0.425469 q 0.2284098,0.118683 0.4501017,0.179144 0.2216919,0.05822 0.4389051,0.05822 0.2911106,0 0.4478625,-0.09853 0.1567518,-0.100769 0.1567518,-0.282153 0,-0.167949 -0.1142049,-0.257521 -0.1119656,-0.08957 -0.494888,-0.172427 l -0.1433159,-0.03359 q -0.3829224,-0.08062 -0.5531101,-0.246324 -0.1701877,-0.167949 -0.1701877,-0.459059 0,-0.353812 0.2508029,-0.546392 0.250803,-0.192581 0.7121012,-0.192581 0.2284099,0 0.429948,0.03359 0.201538,0.03359 0.3717258,0.100769 z"
         style="font-size:4.58611107px;stroke-width:0.26458332"
         id="path4820"
         inkscape:connector-curvature="0" />
    </g>
    <g
       aria-label="Noblemen"
       style="font-style:normal;font-weight:normal;font-size:2.82222223px;line-height:1.25;font-family:sans-serif;letter-spacing:0px;word-spacing:0px;writing-mode:lr-tb;fill:#000000;fill-opacity:1;stroke:none;stroke-width:0.26458332"
       id="text4543-3">
      <path
         d="m -24.661926,52.407871 h 0.609092 l 1.482425,2.7969 v -2.7969 h 0.438905 v 3.343292 h -0.609093 l -1.482424,-2.7969 v 2.7969 h -0.438905 z"
         style="font-size:4.58611107px;stroke-width:0.26458332"
         id="path4795"
         inkscape:connector-curvature="0" />
      <path
         d="m -20.277353,53.532005 q -0.331418,0 -0.523999,0.25976 -0.192581,0.257521 -0.192581,0.707623 0,0.450102 0.190341,0.709862 0.192581,0.257521 0.526239,0.257521 0.329179,0 0.521759,-0.25976 0.192581,-0.259761 0.192581,-0.707623 0,-0.445623 -0.192581,-0.705383 -0.19258,-0.262 -0.521759,-0.262 z m 0,-0.349332 q 0.537435,0 0.84422,0.349332 0.306786,0.349333 0.306786,0.967383 0,0.615811 -0.306786,0.967383 -0.306785,0.349333 -0.84422,0.349333 -0.539675,0 -0.84646,-0.349333 -0.304547,-0.351572 -0.304547,-0.967383 0,-0.61805 0.304547,-0.967383 0.306785,-0.349332 0.84646,-0.349332 z"
         style="font-size:4.58611107px;stroke-width:0.26458332"
         id="path4797"
         inkscape:connector-curvature="0" />
      <path
         d="m -16.645189,54.499388 q 0,-0.45458 -0.188102,-0.712101 -0.185863,-0.25976 -0.512803,-0.25976 -0.326939,0 -0.515042,0.25976 -0.185863,0.257521 -0.185863,0.712101 0,0.45458 0.185863,0.714341 0.188103,0.25752 0.515042,0.25752 0.32694,0 0.512803,-0.25752 0.188102,-0.259761 0.188102,-0.714341 z m -1.40181,-0.875571 q 0.129881,-0.223931 0.32694,-0.331418 0.199299,-0.109726 0.474734,-0.109726 0.45682,0 0.741212,0.362768 0.286632,0.362769 0.286632,0.953947 0,0.591178 -0.286632,0.953947 -0.284392,0.362769 -0.741212,0.362769 -0.275435,0 -0.474734,-0.107487 -0.197059,-0.109727 -0.32694,-0.333658 v 0.376204 h -0.414272 v -3.484369 h 0.414272 z"
         style="font-size:4.58611107px;stroke-width:0.26458332"
         id="path4799"
         inkscape:connector-curvature="0" />
      <path
         d="m -15.53449,52.266794 h 0.412033 v 3.484369 h -0.412033 z"
         style="font-size:4.58611107px;stroke-width:0.26458332"
         id="path4801"
         inkscape:connector-curvature="0" />
      <path
         d="m -12.1173,54.39414 v 0.201538 h -1.894458 q 0.02687,0.42547 0.255282,0.649401 0.230649,0.221692 0.640443,0.221692 0.237367,0 0.459059,-0.05822 0.223931,-0.05822 0.443384,-0.174667 v 0.389641 q -0.221692,0.09405 -0.454581,0.143316 -0.232888,0.04927 -0.472494,0.04927 -0.600136,0 -0.951708,-0.349333 -0.349333,-0.349333 -0.349333,-0.94499 0,-0.615811 0.331419,-0.97634 0.333657,-0.362768 0.897964,-0.362768 0.506084,0 0.799434,0.326939 0.295589,0.3247 0.295589,0.884528 z m -0.412033,-0.120922 q -0.0045,-0.338137 -0.190342,-0.539675 -0.183623,-0.201538 -0.48817,-0.201538 -0.344854,0 -0.55311,0.19482 -0.206017,0.194821 -0.237367,0.548632 z"
         style="font-size:4.58611107px;stroke-width:0.26458332"
         id="path4803"
         inkscape:connector-curvature="0" />
      <path
         d="m -9.4883474,53.724586 q 0.1545125,-0.277675 0.3694865,-0.409794 0.214974,-0.132119 0.5060845,-0.132119 0.3918796,0 0.6046143,0.275435 0.2127346,0.273196 0.2127346,0.779281 v 1.513774 h -0.4142727 v -1.500339 q 0,-0.360529 -0.1276408,-0.535195 -0.1276408,-0.174667 -0.3896403,-0.174667 -0.3202216,0 -0.5060845,0.212735 -0.1858629,0.212735 -0.1858629,0.579982 v 1.417484 h -0.4142727 v -1.500339 q 0,-0.362768 -0.1276408,-0.535195 -0.1276408,-0.174667 -0.3941188,-0.174667 -0.315743,0 -0.501606,0.214974 -0.185863,0.212735 -0.185863,0.577743 v 1.417484 h -0.414273 v -2.508029 h 0.414273 v 0.38964 q 0.141077,-0.230649 0.338136,-0.340375 0.19706,-0.109726 0.468016,-0.109726 0.2731965,0 0.463538,0.138837 0.1925808,0.138837 0.2843926,0.403076 z"
         style="font-size:4.58611107px;stroke-width:0.26458332"
         id="path4805"
         inkscape:connector-curvature="0" />
      <path
         d="m -4.8260991,54.39414 v 0.201538 h -1.894458 q 0.026872,0.42547 0.2552816,0.649401 0.2306491,0.221692 0.6404432,0.221692 0.2373671,0 0.459059,-0.05822 0.2239312,-0.05822 0.4433838,-0.174667 v 0.389641 q -0.2216919,0.09405 -0.4545804,0.143316 -0.2328884,0.04927 -0.4724948,0.04927 -0.6001357,0 -0.9517076,-0.349333 -0.3493327,-0.349333 -0.3493327,-0.94499 0,-0.615811 0.3314182,-0.97634 0.3336575,-0.362768 0.8979641,-0.362768 0.5060845,0 0.7994344,0.326939 0.2955892,0.3247 0.2955892,0.884528 z m -0.4120334,-0.120922 q -0.00448,-0.338137 -0.1903416,-0.539675 -0.1836236,-0.201538 -0.48817,-0.201538 -0.344854,0 -0.5531101,0.19482 -0.2060167,0.194821 -0.237367,0.548632 z"
         style="font-size:4.58611107px;stroke-width:0.26458332"
         id="path4807"
         inkscape:connector-curvature="0" />
      <path
         d="m -2.0650273,54.237389 v 1.513774 h -0.4120335 v -1.500339 q 0,-0.35605 -0.1388373,-0.532956 -0.1388374,-0.176906 -0.416512,-0.176906 -0.3336575,0 -0.5262384,0.212735 -0.1925808,0.212735 -0.1925808,0.579982 v 1.417484 H -4.165502 v -2.508029 h 0.4142727 v 0.38964 q 0.1477946,-0.22617 0.3470934,-0.338136 0.201538,-0.111965 0.4635375,-0.111965 0.4321873,0 0.6538792,0.268717 0.2216919,0.266478 0.2216919,0.785999 z"
         style="font-size:4.58611107px;stroke-width:0.26458332"
         id="path4809"
         inkscape:connector-curvature="0" />
    </g>
    <g
       aria-label="Commoners"
       style="font-style:normal;font-weight:normal;font-size:2.82222223px;line-height:1.25;font-family:sans-serif;letter-spacing:0px;word-spacing:0px;writing-mode:lr-tb;fill:#000000;fill-opacity:1;stroke:none;stroke-width:0.26458332"
       id="text4543-7">
      <path
         d="m -24.309233,59.235044 v 0.476974 q -0.22841,-0.212735 -0.48817,-0.317983 -0.257521,-0.105247 -0.548632,-0.105247 -0.573264,0 -0.87781,0.351572 -0.304547,0.349332 -0.304547,1.012169 0,0.660597 0.304547,1.012169 0.304546,0.349332 0.87781,0.349332 0.291111,0 0.548632,-0.105247 0.25976,-0.105248 0.48817,-0.317983 v 0.472495 q -0.237368,0.161231 -0.503846,0.241846 -0.264238,0.08062 -0.559828,0.08062 -0.759126,0 -1.195792,-0.463538 -0.436666,-0.465776 -0.436666,-1.269689 0,-0.806153 0.436666,-1.26969 0.436666,-0.465777 1.195792,-0.465777 0.300068,0 0.564307,0.08062 0.266478,0.07838 0.499367,0.237367 z"
         style="font-size:4.58611107px;stroke-width:0.26458332"
         id="path4776"
         inkscape:connector-curvature="0" />
      <path
         d="m -22.652143,60.101658 q -0.331418,0 -0.523999,0.25976 -0.19258,0.257521 -0.19258,0.707623 0,0.450101 0.190341,0.709862 0.192581,0.25752 0.526238,0.25752 0.329179,0 0.52176,-0.25976 0.192581,-0.25976 0.192581,-0.707622 0,-0.445623 -0.192581,-0.705384 -0.192581,-0.261999 -0.52176,-0.261999 z m 0,-0.349333 q 0.537435,0 0.844221,0.349333 0.306786,0.349332 0.306786,0.967383 0,0.61581 -0.306786,0.967382 -0.306786,0.349333 -0.844221,0.349333 -0.539674,0 -0.84646,-0.349333 -0.304546,-0.351572 -0.304546,-0.967382 0,-0.618051 0.304546,-0.967383 0.306786,-0.349333 0.84646,-0.349333 z"
         style="font-size:4.58611107px;stroke-width:0.26458332"
         id="path4778"
         inkscape:connector-curvature="0" />
      <path
         d="m -18.867705,60.294239 q 0.154512,-0.277675 0.369486,-0.409794 0.214974,-0.13212 0.506085,-0.13212 0.391879,0 0.604614,0.275436 0.212735,0.273196 0.212735,0.77928 v 1.513775 h -0.414273 v -1.500339 q 0,-0.360529 -0.127641,-0.535196 -0.127641,-0.174666 -0.38964,-0.174666 -0.320222,0 -0.506085,0.212735 -0.185863,0.212734 -0.185863,0.579982 v 1.417484 h -0.414272 v -1.500339 q 0,-0.362769 -0.127641,-0.535196 -0.127641,-0.174666 -0.394119,-0.174666 -0.315743,0 -0.501606,0.214974 -0.185863,0.212735 -0.185863,0.577743 v 1.417484 h -0.414272 v -2.508029 h 0.414272 v 0.38964 q 0.141077,-0.230649 0.338136,-0.340376 0.19706,-0.109726 0.468017,-0.109726 0.273196,0 0.463537,0.138837 0.192581,0.138838 0.284393,0.403077 z"
         style="font-size:4.58611107px;stroke-width:0.26458332"
         id="path4780"
         inkscape:connector-curvature="0" />
      <path
         d="m -14.398038,60.294239 q 0.154512,-0.277675 0.369486,-0.409794 0.214974,-0.13212 0.506085,-0.13212 0.391879,0 0.604614,0.275436 0.212735,0.273196 0.212735,0.77928 v 1.513775 h -0.414273 v -1.500339 q 0,-0.360529 -0.127641,-0.535196 -0.127641,-0.174666 -0.38964,-0.174666 -0.320222,0 -0.506085,0.212735 -0.185863,0.212734 -0.185863,0.579982 v 1.417484 h -0.414272 v -1.500339 q 0,-0.362769 -0.127641,-0.535196 -0.127641,-0.174666 -0.394119,-0.174666 -0.315743,0 -0.501606,0.214974 -0.185863,0.212735 -0.185863,0.577743 v 1.417484 h -0.414273 v -2.508029 h 0.414273 v 0.38964 q 0.141077,-0.230649 0.338136,-0.340376 0.19706,-0.109726 0.468017,-0.109726 0.273196,0 0.463537,0.138837 0.192581,0.138838 0.284393,0.403077 z"
         style="font-size:4.58611107px;stroke-width:0.26458332"
         id="path4782"
         inkscape:connector-curvature="0" />
      <path
         d="m -10.909189,60.101658 q -0.331419,0 -0.524,0.25976 -0.19258,0.257521 -0.19258,0.707623 0,0.450101 0.190341,0.709862 0.192581,0.25752 0.526239,0.25752 0.329178,0 0.521759,-0.25976 0.192581,-0.25976 0.192581,-0.707622 0,-0.445623 -0.192581,-0.705384 -0.192581,-0.261999 -0.521759,-0.261999 z m 0,-0.349333 q 0.537434,0 0.84422,0.349333 0.3067859,0.349332 0.3067859,0.967383 0,0.61581 -0.3067859,0.967382 -0.306786,0.349333 -0.84422,0.349333 -0.539675,0 -0.84646,-0.349333 -0.304547,-0.351572 -0.304547,-0.967382 0,-0.618051 0.304547,-0.967383 0.306785,-0.349333 0.84646,-0.349333 z"
         style="font-size:4.58611107px;stroke-width:0.26458332"
         id="path4784"
         inkscape:connector-curvature="0" />
      <path
         d="m -6.9926339,60.807041 v 1.513775 h -0.4120334 v -1.500339 q 0,-0.356051 -0.1388374,-0.532956 -0.1388373,-0.176906 -0.416512,-0.176906 -0.3336575,0 -0.5262384,0.212735 -0.1925808,0.212734 -0.1925808,0.579982 v 1.417484 h -0.4142727 v -2.508029 h 0.4142727 v 0.38964 q 0.1477946,-0.226171 0.3470934,-0.338136 0.2015381,-0.111966 0.4635376,-0.111966 0.4321872,0 0.6538791,0.268718 0.2216919,0.266478 0.2216919,0.785998 z"
         style="font-size:4.58611107px;stroke-width:0.26458332"
         id="path4786"
         inkscape:connector-curvature="0" />
      <path
         d="m -4.0210664,60.963793 v 0.201538 h -1.894458 q 0.026872,0.425469 0.2552816,0.649401 0.2306491,0.221691 0.6404432,0.221691 0.2373671,0 0.459059,-0.05822 0.2239312,-0.05822 0.4433838,-0.174666 v 0.38964 q -0.2216919,0.09405 -0.4545804,0.143316 -0.2328884,0.04926 -0.4724948,0.04926 -0.6001356,0 -0.9517076,-0.349333 -0.3493327,-0.349332 -0.3493327,-0.944989 0,-0.615811 0.3314182,-0.97634 0.3336575,-0.362769 0.8979641,-0.362769 0.5060845,0 0.7994344,0.32694 0.2955892,0.3247 0.2955892,0.884528 z M -4.4330998,60.84287 q -0.00448,-0.338136 -0.1903415,-0.539674 -0.1836236,-0.201538 -0.4881701,-0.201538 -0.344854,0 -0.55311,0.19482 -0.2060167,0.19482 -0.2373671,0.548631 z"
         style="font-size:4.58611107px;stroke-width:0.26458332"
         id="path4788"
         inkscape:connector-curvature="0" />
      <path
         d="m -1.8914806,60.197948 q -0.069419,-0.04031 -0.1522732,-0.05822 -0.080615,-0.02015 -0.179145,-0.02015 -0.3493327,0 -0.5374349,0.22841 -0.1858629,0.226171 -0.1858629,0.65164 v 1.321194 h -0.4142727 v -2.508029 h 0.4142727 v 0.38964 q 0.1298801,-0.22841 0.3381361,-0.338136 0.2082561,-0.111966 0.5060846,-0.111966 0.042547,0 0.094051,0.0067 0.051504,0.0045 0.1142049,0.01568 z"
         style="font-size:4.58611107px;stroke-width:0.26458332"
         id="path4790"
         inkscape:connector-curvature="0" />
      <path
         d="m 0.14405499,59.886684 v 0.38964 q -0.17466634,-0.08957 -0.36276855,-0.134359 -0.18810222,-0.04479 -0.3896403,-0.04479 -0.30678575,0 -0.46129824,0.09405 -0.1522733,0.09405 -0.1522733,0.282154 0,0.143316 0.1097263,0.22617 0.1097263,0.08062 0.4411445,0.154513 l 0.14107666,0.03135 q 0.43890516,0.09405 0.62252875,0.266478 0.1858629,0.170188 0.1858629,0.476974 0,0.349332 -0.27767469343,0.55311 -0.27543537657,0.203777 -0.75912678657,0.203777 -0.20153808,0 -0.42099063,-0.04031 -0.2172133,-0.03807 -0.459059,-0.116444 v -0.425469 q 0.2284098,0.118683 0.4501017,0.179145 0.22169191,0.05822 0.43890518,0.05822 0.29111057,0 0.44786241,-0.09853 0.15675184,-0.100769 0.15675184,-0.282153 0,-0.167948 -0.11420491,-0.257521 -0.1119656,-0.08957 -0.49488796,-0.172427 l -0.14331597,-0.03359 Q -1.2801475,61.116052 -1.4503352,60.950348 -1.6205229,60.7824 -1.6205229,60.491289 q 0,-0.353811 0.2508029,-0.546392 0.250803,-0.192581 0.71210128,-0.192581 0.22840982,0 0.42994791,0.03359 0.20153808,0.03359 0.3717258,0.100769 z"
         style="font-size:4.58611107px;stroke-width:0.26458332"
         id="path4792"
         inkscape:connector-curvature="0" />
    </g>
    <g
       aria-label="Wild animals"
       style="font-style:normal;font-weight:normal;font-size:2.82222223px;line-height:1.25;font-family:sans-serif;letter-spacing:0px;word-spacing:0px;writing-mode:lr-tb;fill:#000000;fill-opacity:1;stroke:none;stroke-width:0.26458332"
       id="text4543-4">
      <path
         d="m -27.819355,65.627792 h 0.45682 l 0.703144,2.826012 0.700904,-2.826012 h 0.508324 l 0.703144,2.826012 0.700905,-2.826012 h 0.459059 l -0.839742,3.343293 h -0.568785 l -0.705384,-2.902149 -0.712101,2.902149 h -0.568785 z"
         style="font-size:4.58611107px;stroke-width:0.26458332"
         id="path4753"
         inkscape:connector-curvature="0" />
      <path
         d="m -23.105603,66.463055 h 0.412033 v 2.50803 h -0.412033 z m 0,-0.97634 h 0.412033 v 0.52176 h -0.412033 z"
         style="font-size:4.58611107px;stroke-width:0.26458332"
         id="path4755"
         inkscape:connector-curvature="0" />
      <path
         d="m -21.833674,65.486715 h 0.412034 v 3.48437 h -0.412034 z"
         style="font-size:4.58611107px;stroke-width:0.26458332"
         id="path4757"
         inkscape:connector-curvature="0" />
      <path
         d="m -18.911372,66.843738 v -1.357023 h 0.412034 v 3.48437 h -0.412034 V 68.59488 q -0.12988,0.223931 -0.329178,0.333658 -0.19706,0.107487 -0.474735,0.107487 -0.45458,0 -0.741212,-0.362769 -0.284393,-0.362768 -0.284393,-0.953947 0,-0.591178 0.284393,-0.953947 0.286632,-0.362768 0.741212,-0.362768 0.277675,0 0.474735,0.109726 0.199298,0.107487 0.329178,0.331418 z m -1.404048,0.875571 q 0,0.454581 0.185863,0.714341 0.188102,0.257521 0.515041,0.257521 0.32694,0 0.515042,-0.257521 0.188102,-0.25976 0.188102,-0.714341 0,-0.45458 -0.188102,-0.712101 -0.188102,-0.25976 -0.515042,-0.25976 -0.326939,0 -0.515041,0.25976 -0.185863,0.257521 -0.185863,0.712101 z"
         style="font-size:4.58611107px;stroke-width:0.26458332"
         id="path4759"
         inkscape:connector-curvature="0" />
      <path
         d="m -15.050798,67.710352 q -0.499367,0 -0.691947,0.114205 -0.192581,0.114205 -0.192581,0.38964 0,0.219453 0.143316,0.349333 0.145555,0.127641 0.394119,0.127641 0.342614,0 0.548631,-0.241846 0.208256,-0.244085 0.208256,-0.647161 v -0.09181 z m 0.821827,-0.170188 v 1.430921 h -0.412033 v -0.380683 q -0.141077,0.228409 -0.351572,0.338136 -0.210495,0.107487 -0.515042,0.107487 -0.385161,0 -0.613571,-0.214974 -0.226171,-0.217214 -0.226171,-0.579982 0,-0.42323 0.282154,-0.638204 0.284392,-0.214974 0.84646,-0.214974 h 0.577742 v -0.04031 q 0,-0.284392 -0.188102,-0.438905 -0.185863,-0.156752 -0.523999,-0.156752 -0.214974,0 -0.418752,0.05151 -0.203777,0.0515 -0.391879,0.154512 V 66.57726 q 0.22617,-0.08733 0.438905,-0.12988 0.212735,-0.04479 0.414273,-0.04479 0.544153,0 0.81287,0.282153 0.268717,0.282153 0.268717,0.855417 z"
         style="font-size:4.58611107px;stroke-width:0.26458332"
         id="path4761"
         inkscape:connector-curvature="0" />
      <path
         d="m -11.293232,67.45731 v 1.513775 h -0.412033 v -1.500339 q 0,-0.356051 -0.138838,-0.532957 -0.138837,-0.176905 -0.416512,-0.176905 -0.333657,0 -0.526238,0.212734 -0.192581,0.212735 -0.192581,0.579982 v 1.417485 h -0.414273 v -2.50803 h 0.414273 v 0.38964 q 0.147795,-0.22617 0.347093,-0.338136 0.201538,-0.111965 0.463538,-0.111965 0.432187,0 0.653879,0.268717 0.221692,0.266478 0.221692,0.785999 z"
         style="font-size:4.58611107px;stroke-width:0.26458332"
         id="path4763"
         inkscape:connector-curvature="0" />
      <path
         d="m -10.466925,66.463055 h 0.412033 v 2.50803 h -0.412033 z m 0,-0.97634 h 0.412033 v 0.52176 h -0.412033 z"
         style="font-size:4.58611107px;stroke-width:0.26458332"
         id="path4765"
         inkscape:connector-curvature="0" />
      <path
         d="m -7.2423166,66.944507 q 0.1545125,-0.277674 0.3694865,-0.409794 0.214974,-0.132119 0.5060845,-0.132119 0.3918796,0 0.6046143,0.275435 0.2127346,0.273196 0.2127346,0.779281 v 1.513775 h -0.4142727 v -1.500339 q 0,-0.36053 -0.1276408,-0.535196 -0.1276408,-0.174666 -0.3896403,-0.174666 -0.3202216,0 -0.5060845,0.212734 -0.1858629,0.212735 -0.1858629,0.579982 v 1.417485 h -0.4142727 v -1.500339 q 0,-0.362769 -0.1276408,-0.535196 -0.1276408,-0.174666 -0.3941189,-0.174666 -0.315743,0 -0.5016059,0.214974 -0.1858629,0.212734 -0.1858629,0.577742 v 1.417485 h -0.4142728 v -2.50803 h 0.4142728 v 0.38964 q 0.1410766,-0.230649 0.3381361,-0.340375 0.1970594,-0.109726 0.4680162,-0.109726 0.2731961,0 0.4635376,0.138837 0.1925808,0.138837 0.2843926,0.403076 z"
         style="font-size:4.58611107px;stroke-width:0.26458332"
         id="path4767"
         inkscape:connector-curvature="0" />
      <path
         d="m -3.5855194,67.710352 q -0.4993666,0 -0.6919474,0.114205 -0.1925809,0.114205 -0.1925809,0.38964 0,0.219453 0.143316,0.349333 0.1455553,0.127641 0.3941189,0.127641 0.3426148,0 0.5486315,-0.241846 0.208256,-0.244085 0.208256,-0.647161 v -0.09181 z m 0.8218275,-0.170188 v 1.430921 h -0.4120334 v -0.380683 q -0.1410767,0.228409 -0.351572,0.338136 -0.2104953,0.107487 -0.5150418,0.107487 -0.3851617,0 -0.6135715,-0.214974 -0.2261705,-0.217214 -0.2261705,-0.579982 0,-0.42323 0.2821533,-0.638204 0.2843926,-0.214974 0.84646,-0.214974 h 0.5777425 v -0.04031 q 0,-0.284392 -0.1881022,-0.438905 -0.1858629,-0.156752 -0.523999,-0.156752 -0.214974,0 -0.4187514,0.05151 -0.2037774,0.0515 -0.3918796,0.154512 V 66.57726 q 0.2261705,-0.08733 0.4389052,-0.12988 0.2127346,-0.04479 0.4142727,-0.04479 0.5441528,0 0.8128703,0.282153 0.2687174,0.282153 0.2687174,0.855417 z"
         style="font-size:4.58611107px;stroke-width:0.26458332"
         id="path4769"
         inkscape:connector-curvature="0" />
      <path
         d="m -1.9127549,65.486715 h 0.4120334 v 3.48437 h -0.4120334 z"
         style="font-size:4.58611107px;stroke-width:0.26458332"
         id="path4771"
         inkscape:connector-curvature="0" />
      <path
         d="m 0.95804463,66.536952 v 0.389641 q -0.17466634,-0.08957 -0.36276855,-0.134359 -0.18810222,-0.04479 -0.3896403,-0.04479 -0.30678575,0 -0.46129828,0.09405 -0.15227322,0.09405 -0.15227322,0.282153 0,0.143316 0.10972629,0.226171 0.10972629,0.08061 0.44114447,0.154512 l 0.14107666,0.03135 q 0.43890516,0.09405 0.62252875,0.266478 0.18586285,0.170187 0.18586285,0.476973 0,0.349333 -0.27767464,0.55311 -0.27543539,0.203778 -0.75912679,0.203778 -0.20153808,0 -0.42099066,-0.04031 -0.21721327,-0.03807 -0.45905897,-0.116444 v -0.425469 q 0.22840983,0.118683 0.45010172,0.179144 0.22169189,0.05822 0.43890516,0.05822 0.29111057,0 0.44786241,-0.09853 0.15675184,-0.100769 0.15675184,-0.282153 0,-0.167949 -0.11420491,-0.257521 -0.1119656,-0.08957 -0.49488796,-0.172427 l -0.14331597,-0.03359 q -0.38292236,-0.08062 -0.55311008,-0.246324 -0.17018771,-0.167949 -0.17018771,-0.459059 0,-0.353812 0.25080294,-0.546392 0.25080295,-0.192581 0.71210123,-0.192581 0.22840983,0 0.42994792,0.03359 0.20153808,0.03359 0.3717258,0.100769 z"
         style="font-size:4.58611107px;stroke-width:0.26458332"
         id="path4773"
         inkscape:connector-curvature="0" />
    </g>
    <g
       aria-label="Domestic animals"
       style="font-style:normal;font-weight:normal;font-size:2.82222223px;line-height:1.25;font-family:sans-serif;letter-spacing:0px;word-spacing:0px;writing-mode:lr-tb;fill:#000000;fill-opacity:1;stroke:none;stroke-width:0.26458332"
       id="text4543-1">
      <path
         d="m -33.08062,72.609472 v 2.599842 h 0.546392 q 0.691948,0 1.012169,-0.313504 0.322461,-0.313504 0.322461,-0.989776 0,-0.671794 -0.322461,-0.983058 -0.320221,-0.313504 -1.012169,-0.313504 z m -0.452341,-0.371725 h 0.929314 q 0.971862,0 1.426442,0.405315 0.454581,0.403076 0.454581,1.262972 0,0.864374 -0.45682,1.26969 -0.45682,0.405315 -1.424203,0.405315 h -0.929314 z"
         style="font-size:4.58611107px;stroke-width:0.26458332"
         id="path4722"
         inkscape:connector-curvature="0" />
      <path
         d="m -29.049858,73.361881 q -0.331419,0 -0.523999,0.25976 -0.192581,0.257521 -0.192581,0.707623 0,0.450102 0.190341,0.709862 0.192581,0.257521 0.526239,0.257521 0.329179,0 0.521759,-0.25976 0.192581,-0.259761 0.192581,-0.707623 0,-0.445623 -0.192581,-0.705383 -0.19258,-0.262 -0.521759,-0.262 z m 0,-0.349332 q 0.537435,0 0.84422,0.349332 0.306786,0.349333 0.306786,0.967383 0,0.615811 -0.306786,0.967383 -0.306785,0.349332 -0.84422,0.349332 -0.539675,0 -0.84646,-0.349332 -0.304547,-0.351572 -0.304547,-0.967383 0,-0.61805 0.304547,-0.967383 0.306785,-0.349332 0.84646,-0.349332 z"
         style="font-size:4.58611107px;stroke-width:0.26458332"
         id="path4724"
         inkscape:connector-curvature="0" />
      <path
         d="m -25.265421,73.554462 q 0.154512,-0.277675 0.369486,-0.409794 0.214974,-0.132119 0.506085,-0.132119 0.391879,0 0.604614,0.275435 0.212735,0.273196 0.212735,0.77928 v 1.513775 h -0.414273 V 74.0807 q 0,-0.360529 -0.127641,-0.535195 -0.127641,-0.174667 -0.38964,-0.174667 -0.320222,0 -0.506085,0.212735 -0.185863,0.212735 -0.185863,0.579982 v 1.417484 h -0.414272 V 74.0807 q 0,-0.362768 -0.127641,-0.535195 -0.127641,-0.174667 -0.394119,-0.174667 -0.315743,0 -0.501606,0.214974 -0.185863,0.212735 -0.185863,0.577743 v 1.417484 h -0.414273 V 73.07301 h 0.414273 v 0.38964 q 0.141077,-0.230649 0.338136,-0.340375 0.19706,-0.109726 0.468017,-0.109726 0.273196,0 0.463537,0.138837 0.192581,0.138837 0.284393,0.403076 z"
         style="font-size:4.58611107px;stroke-width:0.26458332"
         id="path4726"
         inkscape:connector-curvature="0" />
      <path
         d="m -20.603173,74.224016 v 0.201538 h -1.894458 q 0.02687,0.42547 0.255282,0.649401 0.230649,0.221692 0.640443,0.221692 0.237367,0 0.459059,-0.05822 0.223931,-0.05822 0.443384,-0.174667 v 0.389641 q -0.221692,0.09405 -0.454581,0.143316 -0.232888,0.04926 -0.472495,0.04926 -0.600135,0 -0.951707,-0.349332 -0.349333,-0.349333 -0.349333,-0.94499 0,-0.615811 0.331418,-0.97634 0.333658,-0.362768 0.897964,-0.362768 0.506085,0 0.799435,0.326939 0.295589,0.3247 0.295589,0.884528 z m -0.412033,-0.120923 q -0.0045,-0.338136 -0.190342,-0.539674 -0.183624,-0.201538 -0.48817,-0.201538 -0.344854,0 -0.55311,0.19482 -0.206017,0.19482 -0.237367,0.548632 z"
         style="font-size:4.58611107px;stroke-width:0.26458332"
         id="path4728"
         inkscape:connector-curvature="0" />
      <path
         d="m -18.328032,73.146907 v 0.389641 q -0.174666,-0.08957 -0.362768,-0.134359 -0.188103,-0.04479 -0.389641,-0.04479 -0.306786,0 -0.461298,0.09405 -0.152273,0.09405 -0.152273,0.282153 0,0.143316 0.109726,0.226171 0.109726,0.08061 0.441144,0.154512 l 0.141077,0.03135 q 0.438905,0.09405 0.622529,0.266479 0.185863,0.170187 0.185863,0.476973 0,0.349333 -0.277675,0.55311 -0.275435,0.203777 -0.759127,0.203777 -0.201538,0 -0.42099,-0.04031 -0.217214,-0.03807 -0.459059,-0.116444 v -0.42547 q 0.22841,0.118684 0.450101,0.179145 0.221692,0.05822 0.438906,0.05822 0.29111,0 0.447862,-0.09853 0.156752,-0.100769 0.156752,-0.282154 0,-0.167948 -0.114205,-0.257521 -0.111966,-0.08957 -0.494888,-0.172427 l -0.143316,-0.03359 q -0.382922,-0.08062 -0.55311,-0.246325 -0.170188,-0.167948 -0.170188,-0.459059 0,-0.353811 0.250803,-0.546392 0.250803,-0.19258 0.712101,-0.19258 0.22841,0 0.429948,0.03359 0.201538,0.03359 0.371726,0.100769 z"
         style="font-size:4.58611107px;stroke-width:0.26458332"
         id="path4730"
         inkscape:connector-curvature="0" />
      <path
         d="m -17.127761,72.360909 v 0.712101 h 0.8487 v 0.320222 h -0.8487 v 1.361501 q 0,0.306786 0.08285,0.394119 0.08509,0.08733 0.342615,0.08733 h 0.42323 v 0.344854 h -0.42323 q -0.476974,0 -0.658358,-0.176905 -0.181384,-0.179145 -0.181384,-0.649401 V 73.393232 H -17.84434 V 73.07301 h 0.302307 v -0.712101 z"
         style="font-size:4.58611107px;stroke-width:0.26458332"
         id="path4732"
         inkscape:connector-curvature="0" />
      <path
         d="m -15.734908,73.07301 h 0.412033 v 2.508029 h -0.412033 z m 0,-0.97634 h 0.412033 v 0.52176 h -0.412033 z"
         style="font-size:4.58611107px;stroke-width:0.26458332"
         id="path4734"
         inkscape:connector-curvature="0" />
      <path
         d="m -12.658094,73.1693 v 0.385162 q -0.174666,-0.09629 -0.351572,-0.143316 -0.174666,-0.04927 -0.353811,-0.04927 -0.400837,0 -0.622529,0.255282 -0.221692,0.253042 -0.221692,0.712101 0,0.459059 0.221692,0.714341 0.221692,0.253042 0.622529,0.253042 0.179145,0 0.353811,-0.04703 0.176906,-0.04927 0.351572,-0.145555 v 0.380683 q -0.172427,0.08062 -0.35829,0.120923 -0.183623,0.04031 -0.391879,0.04031 -0.566546,0 -0.900204,-0.35605 -0.333657,-0.356051 -0.333657,-0.960665 0,-0.613572 0.335897,-0.965143 0.338136,-0.351572 0.924836,-0.351572 0.190341,0 0.371725,0.04031 0.181385,0.03807 0.351572,0.116444 z"
         style="font-size:4.58611107px;stroke-width:0.26458332"
         id="path4736"
         inkscape:connector-curvature="0" />
      <path
         d="m -9.3371941,74.320307 q -0.4993666,0 -0.6919469,0.114205 -0.192581,0.114205 -0.192581,0.38964 0,0.219453 0.143316,0.349333 0.1455549,0.12764 0.3941186,0.12764 0.3426147,0 0.5486314,-0.241845 0.208256,-0.244085 0.208256,-0.647161 v -0.09181 z m 0.8218275,-0.170188 v 1.43092 H -8.9274 v -0.380683 q -0.1410766,0.22841 -0.351572,0.338136 -0.2104953,0.107487 -0.5150417,0.107487 -0.3851613,0 -0.6135713,-0.214973 -0.226171,-0.217214 -0.226171,-0.579982 0,-0.42323 0.282154,-0.638204 0.284392,-0.214974 0.8464595,-0.214974 H -8.9274 v -0.04031 q 0,-0.284392 -0.1881022,-0.438905 -0.1858629,-0.156752 -0.523999,-0.156752 -0.214974,0 -0.4187518,0.0515 -0.203777,0.0515 -0.391879,0.154513 v -0.380683 q 0.22617,-0.08733 0.438905,-0.12988 0.2127346,-0.04479 0.4142727,-0.04479 0.5441529,0 0.8128703,0.282153 0.2687174,0.282153 0.2687174,0.855417 z"
         style="font-size:4.58611107px;stroke-width:0.26458332"
         id="path4738"
         inkscape:connector-curvature="0" />
      <path
         d="m -5.5796281,74.067264 v 1.513775 H -5.9916615 V 74.0807 q 0,-0.35605 -0.1388374,-0.532956 -0.1388373,-0.176906 -0.416512,-0.176906 -0.3336575,0 -0.5262383,0.212735 -0.1925809,0.212735 -0.1925809,0.579982 v 1.417484 H -7.6801028 V 73.07301 h 0.4142727 v 0.38964 q 0.1477946,-0.22617 0.3470934,-0.338136 0.2015381,-0.111965 0.4635376,-0.111965 0.4321872,0 0.6538791,0.268717 0.2216919,0.266478 0.2216919,0.785998 z"
         style="font-size:4.58611107px;stroke-width:0.26458332"
         id="path4740"
         inkscape:connector-curvature="0" />
      <path
         d="m -4.7533215,73.07301 h 0.4120334 v 2.508029 h -0.4120334 z m 0,-0.97634 h 0.4120334 v 0.52176 h -0.4120334 z"
         style="font-size:4.58611107px;stroke-width:0.26458332"
         id="path4742"
         inkscape:connector-curvature="0" />
      <path
         d="m -1.5287126,73.554462 q 0.1545125,-0.277675 0.3694865,-0.409794 0.21497393,-0.132119 0.5060845,-0.132119 0.39187961,0 0.60461425,0.275435 0.21273464,0.273196 0.21273464,0.77928 v 1.513775 H -0.25006543 V 74.0807 q 0,-0.360529 -0.12764079,-0.535195 -0.12764079,-0.174667 -0.3896403,-0.174667 -0.32022158,0 -0.50608448,0.212735 -0.1858629,0.212735 -0.1858629,0.579982 v 1.417484 H -1.8735667 V 74.0807 q 0,-0.362768 -0.1276408,-0.535195 -0.1276407,-0.174667 -0.3941189,-0.174667 -0.315743,0 -0.5016059,0.214974 -0.1858629,0.212735 -0.1858629,0.577743 v 1.417484 H -3.4970679 V 73.07301 h 0.4142727 v 0.38964 q 0.1410767,-0.230649 0.3381361,-0.340375 0.1970595,-0.109726 0.4680163,-0.109726 0.273196,0 0.4635376,0.138837 0.1925808,0.138837 0.2843926,0.403076 z"
         style="font-size:4.58611107px;stroke-width:0.26458332"
         id="path4744"
         inkscape:connector-curvature="0" />
      <path
         d="m 2.1280845,74.320307 q -0.4993665,0 -0.6919474,0.114205 -0.1925808,0.114205 -0.1925808,0.38964 0,0.219453 0.143316,0.349333 0.1455552,0.12764 0.3941189,0.12764 0.3426147,0 0.5486314,-0.241845 0.2082561,-0.244085 0.2082561,-0.647161 v -0.09181 z m 0.8218276,-0.170188 v 1.43092 H 2.5378787 v -0.380683 q -0.1410767,0.22841 -0.351572,0.338136 -0.2104954,0.107487 -0.5150418,0.107487 -0.3851617,0 -0.6135715,-0.214973 -0.22617052,-0.217214 -0.22617052,-0.579982 0,-0.42323 0.28215332,-0.638204 0.2843926,-0.214974 0.8464599,-0.214974 h 0.5777426 v -0.04031 q 0,-0.284392 -0.1881023,-0.438905 -0.1858629,-0.156752 -0.523999,-0.156752 -0.2149739,0 -0.4187513,0.0515 -0.2037774,0.0515 -0.3918796,0.154513 v -0.380683 q 0.2261705,-0.08733 0.4389051,-0.12988 0.2127347,-0.04479 0.4142728,-0.04479 0.5441528,0 0.8128702,0.282153 0.2687175,0.282153 0.2687175,0.855417 z"
         style="font-size:4.58611107px;stroke-width:0.26458332"
         id="path4746"
         inkscape:connector-curvature="0" />
      <path
         d="m 3.800851,72.09667 h 0.4120334 v 3.484369 H 3.800851 Z"
         style="font-size:4.58611107px;stroke-width:0.26458332"
         id="path4748"
         inkscape:connector-curvature="0" />
      <path
         d="m 6.6716467,73.146907 v 0.389641 q -0.1746663,-0.08957 -0.3627686,-0.134359 -0.1881022,-0.04479 -0.3896403,-0.04479 -0.3067857,0 -0.4612982,0.09405 -0.1522733,0.09405 -0.1522733,0.282153 0,0.143316 0.1097263,0.226171 0.1097263,0.08061 0.4411445,0.154512 l 0.1410767,0.03135 q 0.4389051,0.09405 0.6225287,0.266479 0.1858629,0.170187 0.1858629,0.476973 0,0.349333 -0.2776747,0.55311 -0.2754354,0.203777 -0.7591268,0.203777 -0.201538,0 -0.4209906,-0.04031 Q 5.131,75.567604 4.8891543,75.489228 v -0.42547 q 0.2284098,0.118684 0.4501017,0.179145 0.2216919,0.05822 0.4389052,0.05822 0.2911106,0 0.4478624,-0.09853 0.1567518,-0.100769 0.1567518,-0.282154 0,-0.167948 -0.1142049,-0.257521 -0.1119656,-0.08957 -0.4948879,-0.172427 l -0.143316,-0.03359 Q 5.2474442,74.37629 5.0772565,74.21058 4.9070688,74.042632 4.9070688,73.751521 q 0,-0.353811 0.250803,-0.546392 0.2508029,-0.19258 0.7121012,-0.19258 0.2284098,0 0.4299479,0.03359 0.2015381,0.03359 0.3717258,0.100768 z"
         style="font-size:4.58611107px;stroke-width:0.26458332"
         id="path4750"
         inkscape:connector-curvature="0" />
    </g>
    <g
       aria-label="Trees"
       style="font-style:normal;font-weight:normal;font-size:2.82222223px;line-height:1.25;font-family:sans-serif;letter-spacing:0px;word-spacing:0px;writing-mode:lr-tb;fill:#000000;fill-opacity:1;stroke:none;stroke-width:0.26458332"
       id="text4543-5">
      <path
         d="m -19.236073,78.777168 h 2.828251 v 0.380683 h -1.186835 v 2.96261 h -0.454581 v -2.96261 h -1.186835 z"
         style="font-size:4.58611107px;stroke-width:0.26458332"
         id="path4711"
         inkscape:connector-curvature="0" />
      <path
         d="m -15.205311,79.997593 q -0.06942,-0.04031 -0.152274,-0.05822 -0.08061,-0.02015 -0.179145,-0.02015 -0.349332,0 -0.537435,0.22841 -0.185862,0.22617 -0.185862,0.651639 v 1.321195 H -16.6743 v -2.50803 h 0.414273 v 0.38964 q 0.12988,-0.22841 0.338136,-0.338136 0.208256,-0.111965 0.506084,-0.111965 0.04255,0 0.09405,0.0067 0.0515,0.0045 0.114205,0.01568 z"
         style="font-size:4.58611107px;stroke-width:0.26458332"
         id="path4713"
         inkscape:connector-curvature="0" />
      <path
         d="m -12.721914,80.763437 v 0.201538 h -1.894458 q 0.02687,0.42547 0.255281,0.649401 0.230649,0.221692 0.640443,0.221692 0.237367,0 0.459059,-0.05822 0.223932,-0.05822 0.443384,-0.174667 v 0.389641 q -0.221692,0.09405 -0.45458,0.143316 -0.232889,0.04927 -0.472495,0.04927 -0.600136,0 -0.951708,-0.349333 -0.349332,-0.349333 -0.349332,-0.94499 0,-0.615811 0.331418,-0.97634 0.333657,-0.362768 0.897964,-0.362768 0.506084,0 0.799434,0.326939 0.29559,0.3247 0.29559,0.884528 z m -0.412034,-0.120922 q -0.0045,-0.338137 -0.190341,-0.539675 -0.183624,-0.201538 -0.48817,-0.201538 -0.344855,0 -0.553111,0.19482 -0.206016,0.194821 -0.237367,0.548632 z"
         style="font-size:4.58611107px;stroke-width:0.26458332"
         id="path4715"
         inkscape:connector-curvature="0" />
      <path
         d="m -9.9003813,80.763437 v 0.201538 h -1.8944577 q 0.02687,0.42547 0.255281,0.649401 0.230649,0.221692 0.640444,0.221692 0.237367,0 0.459059,-0.05822 0.223931,-0.05822 0.4433833,-0.174667 v 0.389641 q -0.2216923,0.09405 -0.4545803,0.143316 -0.232889,0.04927 -0.472495,0.04927 -0.600136,0 -0.951708,-0.349333 -0.349332,-0.349333 -0.349332,-0.94499 0,-0.615811 0.331418,-0.97634 0.333657,-0.362768 0.897964,-0.362768 0.506085,0 0.799435,0.326939 0.2955887,0.3247 0.2955887,0.884528 z m -0.4120337,-0.120922 q -0.0045,-0.338137 -0.190341,-0.539675 -0.183624,-0.201538 -0.48817,-0.201538 -0.344854,0 -0.55311,0.19482 -0.206017,0.194821 -0.237367,0.548632 z"
         style="font-size:4.58611107px;stroke-width:0.26458332"
         id="path4717"
         inkscape:connector-curvature="0" />
      <path
         d="m -7.6252398,79.686328 v 0.389641 q -0.1746663,-0.08957 -0.3627685,-0.134359 -0.1881022,-0.04479 -0.3896403,-0.04479 -0.3067857,0 -0.4612983,0.09405 -0.1522732,0.09405 -0.1522732,0.282153 0,0.143316 0.1097263,0.226171 0.1097263,0.08061 0.4411445,0.154512 l 0.1410766,0.03135 q 0.4389052,0.09405 0.6225288,0.266479 0.1858629,0.170187 0.1858629,0.476973 0,0.349333 -0.2776747,0.55311 -0.2754354,0.203778 -0.7591268,0.203778 -0.2015381,0 -0.4209907,-0.04031 -0.2172132,-0.03807 -0.4590589,-0.116444 v -0.42547 q 0.2284098,0.118684 0.4501017,0.179145 0.2216919,0.05822 0.4389051,0.05822 0.2911106,0 0.4478625,-0.09853 0.1567518,-0.100769 0.1567518,-0.282154 0,-0.167948 -0.1142049,-0.25752 -0.1119656,-0.08957 -0.494888,-0.172427 l -0.143316,-0.03359 q -0.3829223,-0.08061 -0.55311,-0.246324 -0.1701877,-0.167949 -0.1701877,-0.459059 0,-0.353812 0.2508029,-0.546393 0.250803,-0.19258 0.7121012,-0.19258 0.2284099,0 0.4299479,0.03359 0.2015381,0.03359 0.3717258,0.100769 z"
         style="font-size:4.58611107px;stroke-width:0.26458332"
         id="path4719"
         inkscape:connector-curvature="0" />
    </g>
    <g
       aria-label="Stones"
       style="font-style:normal;font-weight:normal;font-size:2.82222223px;line-height:1.25;font-family:sans-serif;letter-spacing:0px;word-spacing:0px;writing-mode:lr-tb;fill:#000000;fill-opacity:1;stroke:none;stroke-width:0.26458332"
       id="text4605">
      <path
         d="m -18.766936,85.527099 v 0.441145 q -0.257521,-0.123162 -0.485931,-0.183624 -0.228409,-0.06046 -0.441144,-0.06046 -0.369487,0 -0.571025,0.143316 -0.199298,0.143316 -0.199298,0.407555 0,0.221691 0.132119,0.335896 0.134359,0.111966 0.506084,0.181385 l 0.273197,0.05598 q 0.506084,0.09629 0.74569,0.340376 0.241846,0.241846 0.241846,0.6494 0,0.485931 -0.326939,0.736734 -0.324701,0.250803 -0.953947,0.250803 -0.237367,0 -0.506085,-0.05374 -0.266478,-0.05374 -0.55311,-0.158991 v -0.465777 q 0.275435,0.154513 0.539674,0.232889 0.264239,0.07838 0.519521,0.07838 0.387401,0 0.597896,-0.152273 0.210495,-0.152274 0.210495,-0.434427 0,-0.246324 -0.152273,-0.385162 -0.150034,-0.138837 -0.494888,-0.208256 l -0.275435,-0.05374 q -0.506085,-0.100769 -0.732255,-0.315743 -0.226171,-0.214974 -0.226171,-0.597896 0,-0.443384 0.311265,-0.698666 0.313503,-0.255281 0.862135,-0.255281 0.235127,0 0.479212,0.04255 0.244086,0.04255 0.499367,0.12764 z"
         style="font-size:4.58611107px;stroke-width:0.26458332"
         id="path4698"
         inkscape:connector-curvature="0" />
      <path
         d="m -17.470374,85.540535 v 0.712101 h 0.848699 v 0.320222 h -0.848699 v 1.361502 q 0,0.306785 0.08285,0.394119 0.08509,0.08733 0.342615,0.08733 h 0.42323 v 0.344854 h -0.42323 q -0.476973,0 -0.658358,-0.176906 -0.181384,-0.179145 -0.181384,-0.6494 v -1.361502 h -0.302307 v -0.320222 h 0.302307 v -0.712101 z"
         style="font-size:4.58611107px;stroke-width:0.26458332"
         id="path4700"
         inkscape:connector-curvature="0" />
      <path
         d="m -15.105661,86.541508 q -0.331418,0 -0.523999,0.25976 -0.192581,0.257521 -0.192581,0.707622 0,0.450102 0.190342,0.709862 0.192581,0.257521 0.526238,0.257521 0.329179,0 0.52176,-0.25976 0.192581,-0.25976 0.192581,-0.707623 0,-0.445623 -0.192581,-0.705383 -0.192581,-0.261999 -0.52176,-0.261999 z m 0,-0.349333 q 0.537435,0 0.844221,0.349333 0.306786,0.349332 0.306786,0.967382 0,0.615811 -0.306786,0.967383 -0.306786,0.349333 -0.844221,0.349333 -0.539674,0 -0.84646,-0.349333 -0.304546,-0.351572 -0.304546,-0.967383 0,-0.61805 0.304546,-0.967382 0.306786,-0.349333 0.84646,-0.349333 z"
         style="font-size:4.58611107px;stroke-width:0.26458332"
         id="path4702"
         inkscape:connector-curvature="0" />
      <path
         d="m -11.189104,87.246891 v 1.513775 h -0.412034 v -1.500339 q 0,-0.356051 -0.138837,-0.532956 -0.138837,-0.176906 -0.416512,-0.176906 -0.333657,0 -0.526238,0.212735 -0.192581,0.212734 -0.192581,0.579981 v 1.417485 h -0.414273 v -2.50803 h 0.414273 v 0.389641 q 0.147794,-0.226171 0.347093,-0.338136 0.201538,-0.111966 0.463538,-0.111966 0.432187,0 0.653879,0.268717 0.221692,0.266479 0.221692,0.785999 z"
         style="font-size:4.58611107px;stroke-width:0.26458332"
         id="path4704"
         inkscape:connector-curvature="0" />
      <path
         d="m -8.2175367,87.403643 v 0.201538 h -1.8944583 q 0.02687,0.425469 0.2552819,0.6494 0.2306492,0.221692 0.6404433,0.221692 0.2373671,0 0.4590589,-0.05822 0.2239312,-0.05822 0.4433838,-0.174666 v 0.38964 q -0.2216919,0.09405 -0.4545803,0.143316 -0.2328885,0.04926 -0.4724949,0.04926 -0.6001356,0 -0.9517077,-0.349333 -0.349333,-0.349332 -0.349333,-0.944989 0,-0.615811 0.331419,-0.97634 0.3336571,-0.362769 0.8979638,-0.362769 0.5060845,0 0.7994344,0.32694 0.2955891,0.3247 0.2955891,0.884528 z M -8.6295701,87.28272 q -0.00448,-0.338136 -0.1903415,-0.539674 -0.1836236,-0.201538 -0.48817,-0.201538 -0.3448541,0 -0.5531101,0.19482 -0.2060163,0.19482 -0.2373673,0.548631 z"
         style="font-size:4.58611107px;stroke-width:0.26458332"
         id="path4706"
         inkscape:connector-curvature="0" />
      <path
         d="m -5.9423956,86.326534 v 0.38964 q -0.1746663,-0.08957 -0.3627685,-0.134359 -0.1881023,-0.04479 -0.3896403,-0.04479 -0.3067858,0 -0.4612983,0.09405 -0.1522732,0.09405 -0.1522732,0.282153 0,0.143316 0.1097263,0.226171 0.1097262,0.08061 0.4411444,0.154513 l 0.1410767,0.03135 q 0.4389051,0.09405 0.6225287,0.266478 0.1858629,0.170188 0.1858629,0.476973 0,0.349333 -0.2776747,0.553111 -0.2754353,0.203777 -0.7591267,0.203777 -0.2015381,0 -0.4209907,-0.04031 -0.2172133,-0.03807 -0.459059,-0.116444 v -0.425469 q 0.2284099,0.118683 0.4501017,0.179145 0.2216919,0.05822 0.4389052,0.05822 0.2911106,0 0.4478624,-0.09853 0.1567519,-0.100769 0.1567519,-0.282153 0,-0.167949 -0.114205,-0.257521 -0.1119656,-0.08957 -0.4948879,-0.172427 l -0.143316,-0.03359 q -0.3829224,-0.08062 -0.5531101,-0.246324 -0.1701877,-0.167948 -0.1701877,-0.459059 0,-0.353811 0.250803,-0.546392 0.2508029,-0.192581 0.7121012,-0.192581 0.2284098,0 0.4299479,0.03359 0.2015381,0.03359 0.3717258,0.100769 z"
         style="font-size:4.58611107px;stroke-width:0.26458332"
         id="path4708"
         inkscape:connector-curvature="0" />
    </g>
    <g
       aria-label="Minerals"
       style="font-style:normal;font-weight:normal;font-size:2.82222223px;line-height:1.25;font-family:sans-serif;letter-spacing:0px;word-spacing:0px;writing-mode:lr-tb;fill:#000000;fill-opacity:1;stroke:none;stroke-width:0.26458332"
       id="text4543-9">
      <path
         d="m -22.69021,92.067642 h 0.674032 l 0.853178,2.275141 0.857657,-2.275141 h 0.674033 v 3.343292 h -0.441145 v -2.935738 l -0.862135,2.293056 h -0.45458 l -0.862135,-2.293056 v 2.935738 h -0.438905 z"
         style="font-size:4.58611107px;stroke-width:0.26458332"
         id="path4681"
         inkscape:connector-curvature="0" />
      <path
         d="m -18.749021,92.902905 h 0.412033 v 2.508029 h -0.412033 z m 0,-0.97634 h 0.412033 v 0.52176 h -0.412033 z"
         style="font-size:4.58611107px;stroke-width:0.26458332"
         id="path4683"
         inkscape:connector-curvature="0" />
      <path
         d="m -15.392293,93.89716 v 1.513774 h -0.412033 v -1.500339 q 0,-0.35605 -0.138837,-0.532956 -0.138838,-0.176906 -0.416512,-0.176906 -0.333658,0 -0.526239,0.212735 -0.192581,0.212735 -0.192581,0.579982 v 1.417484 h -0.414272 v -2.508029 h 0.414272 v 0.38964 q 0.147795,-0.22617 0.347094,-0.338136 0.201538,-0.111965 0.463537,-0.111965 0.432188,0 0.653879,0.268717 0.221692,0.266478 0.221692,0.785999 z"
         style="font-size:4.58611107px;stroke-width:0.26458332"
         id="path4685"
         inkscape:connector-curvature="0" />
      <path
         d="m -12.420726,94.053911 v 0.201538 h -1.894458 q 0.02687,0.42547 0.255282,0.649401 0.230649,0.221692 0.640443,0.221692 0.237367,0 0.459059,-0.05822 0.223931,-0.05822 0.443384,-0.174667 v 0.389641 q -0.221692,0.09405 -0.45458,0.143316 -0.232889,0.04926 -0.472495,0.04926 -0.600136,0 -0.951708,-0.349332 -0.349332,-0.349333 -0.349332,-0.94499 0,-0.615811 0.331418,-0.97634 0.333657,-0.362768 0.897964,-0.362768 0.506084,0 0.799434,0.326939 0.295589,0.3247 0.295589,0.884528 z m -0.412033,-0.120923 q -0.0045,-0.338136 -0.190341,-0.539674 -0.183624,-0.201538 -0.488171,-0.201538 -0.344854,0 -0.55311,0.19482 -0.206016,0.194821 -0.237367,0.548632 z"
         style="font-size:4.58611107px;stroke-width:0.26458332"
         id="path4687"
         inkscape:connector-curvature="0" />
      <path
         d="m -10.29114,93.288067 q -0.06942,-0.04031 -0.152273,-0.05822 -0.08061,-0.02015 -0.179145,-0.02015 -0.349333,0 -0.537435,0.22841 -0.185863,0.22617 -0.185863,0.651639 v 1.321194 h -0.414272 v -2.508029 h 0.414272 v 0.38964 q 0.12988,-0.22841 0.338136,-0.338136 0.208256,-0.111965 0.506085,-0.111965 0.04255,0 0.09405,0.0067 0.0515,0.0045 0.114205,0.01568 z"
         style="font-size:4.58611107px;stroke-width:0.26458332"
         id="path4689"
         inkscape:connector-curvature="0" />
      <path
         d="m -8.7146641,94.150202 q -0.4993666,0 -0.6919474,0.114205 -0.1925809,0.114205 -0.1925809,0.38964 0,0.219453 0.143316,0.349333 0.1455553,0.12764 0.3941189,0.12764 0.3426148,0 0.5486315,-0.241845 0.208256,-0.244085 0.208256,-0.647161 v -0.09181 z m 0.8218275,-0.170188 v 1.43092 H -8.30487 v -0.380683 q -0.1410766,0.22841 -0.351572,0.338137 -0.2104953,0.107486 -0.5150417,0.107486 -0.3851617,0 -0.6135715,-0.214973 -0.2261708,-0.217214 -0.2261708,-0.579982 0,-0.42323 0.2821536,-0.638204 0.2843926,-0.214974 0.8464599,-0.214974 H -8.30487 v -0.04031 q 0,-0.284392 -0.1881022,-0.438905 -0.1858629,-0.156752 -0.523999,-0.156752 -0.214974,0 -0.4187514,0.0515 -0.2037774,0.05151 -0.3918796,0.154513 V 93.01711 q 0.2261705,-0.08733 0.4389052,-0.12988 0.2127346,-0.04479 0.4142727,-0.04479 0.5441528,0 0.8128703,0.282153 0.2687174,0.282153 0.2687174,0.855417 z"
         style="font-size:4.58611107px;stroke-width:0.26458332"
         id="path4691"
         inkscape:connector-curvature="0" />
      <path
         d="m -7.0418976,91.926565 h 0.4120334 v 3.484369 h -0.4120334 z"
         style="font-size:4.58611107px;stroke-width:0.26458332"
         id="path4693"
         inkscape:connector-curvature="0" />
      <path
         d="m -4.1711,92.976802 v 0.389641 q -0.1746664,-0.08957 -0.3627686,-0.134359 -0.1881022,-0.04479 -0.3896403,-0.04479 -0.3067857,0 -0.4612983,0.09405 -0.1522732,0.09405 -0.1522732,0.282153 0,0.143316 0.1097263,0.226171 0.1097263,0.08062 0.4411445,0.154512 l 0.1410766,0.03135 q 0.4389052,0.09405 0.6225288,0.266479 0.1858629,0.170187 0.1858629,0.476973 0,0.349333 -0.2776747,0.55311 -0.2754354,0.203777 -0.7591268,0.203777 -0.2015381,0 -0.4209907,-0.04031 -0.2172132,-0.03807 -0.4590589,-0.116444 v -0.42547 q 0.2284098,0.118684 0.4501017,0.179145 0.2216919,0.05822 0.4389052,0.05822 0.2911105,0 0.4478624,-0.09853 0.1567518,-0.100769 0.1567518,-0.282154 0,-0.167948 -0.1142049,-0.25752 -0.1119656,-0.08957 -0.494888,-0.172428 L -5.2123801,94.2868 q -0.3829224,-0.08061 -0.5531101,-0.246325 -0.1701877,-0.167948 -0.1701877,-0.459058 0,-0.353812 0.2508029,-0.546393 0.250803,-0.19258 0.7121012,-0.19258 0.2284099,0 0.429948,0.03359 0.201538,0.03359 0.3717258,0.100768 z"
         style="font-size:4.58611107px;stroke-width:0.26458332"
         id="path4695"
         inkscape:connector-curvature="0" />
    </g>
    <path
       style="fill:none;fill-rule:evenodd;stroke:#000000;stroke-width:0.26275888px;stroke-linecap:butt;stroke-linejoin:miter;stroke-opacity:1"
       d="m -65.720599,90.348986 104.652135,0.0945"
       id="path4622"
       inkscape:connector-curvature="0" />
    <path
       style="fill:none;fill-rule:evenodd;stroke:#000000;stroke-width:0.25006872px;stroke-linecap:butt;stroke-linejoin:miter;stroke-opacity:1"
       d="m -60.570496,83.738972 94.682658,0.0946"
       id="path4622-8"
       inkscape:connector-curvature="0" />
    <path
       style="fill:none;fill-rule:evenodd;stroke:#000000;stroke-width:0.23739018px;stroke-linecap:butt;stroke-linejoin:miter;stroke-opacity:1"
       d="m -55.940135,77.12895 85.232947,0.0947"
       id="path4622-1"
       inkscape:connector-curvature="0" />
    <path
       style="fill:none;fill-rule:evenodd;stroke:#000000;stroke-width:0.2235633px;stroke-linecap:butt;stroke-linejoin:miter;stroke-opacity:1"
       d="m -50.931795,70.518931 75.499752,0.09482"
       id="path4622-5"
       inkscape:connector-curvature="0" />
    <path
       style="fill:none;fill-rule:evenodd;stroke:#000000;stroke-width:0.20833434px;stroke-linecap:butt;stroke-linejoin:miter;stroke-opacity:1"
       d="m -46.017977,63.908913 65.483126,0.09494"
       id="path4622-4"
       inkscape:connector-curvature="0" />
    <path
       style="fill:none;fill-rule:evenodd;stroke:#000000;stroke-width:0.19252104px;stroke-linecap:butt;stroke-linejoin:miter;stroke-opacity:1"
       d="m -41.198667,57.2989 55.844506,0.09507"
       id="path4622-54"
       inkscape:connector-curvature="0" />
    <path
       style="fill:none;fill-rule:evenodd;stroke:#000000;stroke-width:0.17471436px;stroke-linecap:butt;stroke-linejoin:miter;stroke-opacity:1"
       d="m -36.284882,50.688852 45.9224427,0.09521"
       id="path4622-2"
       inkscape:connector-curvature="0" />
    <path
       style="fill:none;fill-rule:evenodd;stroke:#000000;stroke-width:0.15381046px;stroke-linecap:butt;stroke-linejoin:miter;stroke-opacity:1"
       d="m -31.182139,44.078809 35.5279689,0.09538"
       id="path4622-3"
       inkscape:connector-curvature="0" />
    <path
       style="fill:none;fill-rule:evenodd;stroke:#000000;stroke-width:0.13213736px;stroke-linecap:butt;stroke-linejoin:miter;stroke-opacity:1"
       d="m -26.268434,37.468762 26.17302785,0.09555"
       id="path4622-6"
       inkscape:connector-curvature="0" />
    <g
       transform="translate(-35.118652,-0.89562971)"
       aria-label="Stars"
       style="font-style:normal;font-weight:normal;font-size:2.82222223px;line-height:1.25;font-family:sans-serif;letter-spacing:0px;word-spacing:0px;writing-mode:lr-tb;fill:#000000;fill-opacity:1;stroke:none;stroke-width:0.26458332"
       id="text4543-48" />
    <text
       xml:space="preserve"
       style="font-style:normal;font-weight:normal;font-size:2.82222223px;line-height:1.25;font-family:sans-serif;letter-spacing:0px;word-spacing:0px;writing-mode:lr-tb;fill:#000000;fill-opacity:1;stroke:none;stroke-width:0.26458332"
       x="-18.147038"
       y="29.636009"
       id="text949"><tspan
         sodipodi:role="line"
         id="tspan947"
         x="-18.147038"
         y="29.636009"
         style="font-size:4.58611107px;stroke-width:0.26458332">God</tspan></text>
    <path
       style="fill:none;fill-rule:evenodd;stroke:#000000;stroke-width:0.105;stroke-linecap:butt;stroke-linejoin:miter;stroke-opacity:1;stroke-miterlimit:4;stroke-dasharray:none"
       d="m -21.678092,30.92423 16.5501794,0.09625"
       id="path4622-6-4"
       inkscape:connector-curvature="0" />
  </g>
</svg>
